<svg xmlns="http://www.w3.org/2000/svg" xmlns:xlink="http://www.w3.org/1999/xlink" width="500" zoomAndPan="magnify" viewBox="0 0 375 374.999991" height="500" preserveAspectRatio="xMidYMid meet" version="1.0"><defs><clipPath id="78eba6ee0f"><path d="M 187.5 0 C 83.945312 0 0 83.945312 0 187.5 C 0 291.054688 83.945312 375 187.5 375 C 291.054688 375 375 291.054688 375 187.5 C 375 83.945312 291.054688 0 187.5 0 " clip-rule="nonzero"/></clipPath></defs><g clip-path="url(#78eba6ee0f)"><rect x="-37.5" width="450" fill="#1074ef" y="-37.499999" height="449.999989" fill-opacity="1"/></g><path fill="#000000" d="M 320.078125 105.96875 C 320.066406 105.894531 320.054688 105.816406 320.042969 105.738281 C 319.988281 105.402344 319.914062 105.066406 319.824219 104.734375 C 319.808594 104.675781 319.796875 104.617188 319.777344 104.554688 C 319.667969 104.1875 319.53125 103.824219 319.371094 103.464844 C 319.339844 103.390625 319.304688 103.316406 319.265625 103.246094 C 319.1875 103.066406 319.101562 102.890625 319.007812 102.710938 C 318.953125 102.617188 318.886719 102.527344 318.828125 102.429688 C 318.769531 102.335938 318.714844 102.246094 318.65625 102.152344 C 318.464844 101.855469 318.253906 101.570312 318.03125 101.300781 C 318.011719 101.277344 317.996094 101.253906 317.976562 101.234375 C 317.71875 100.929688 317.441406 100.648438 317.15625 100.382812 C 317.101562 100.335938 317.046875 100.285156 316.988281 100.238281 C 316.726562 100.015625 316.457031 99.800781 316.179688 99.609375 C 316.121094 99.574219 316.074219 99.535156 316.019531 99.5 C 315.695312 99.28125 315.351562 99.085938 314.996094 98.914062 C 314.972656 98.902344 314.953125 98.890625 314.929688 98.878906 L 192.285156 39.96875 C 189.765625 38.761719 186.828125 38.761719 184.304688 39.96875 L 61.652344 98.875 C 61.628906 98.886719 61.609375 98.902344 61.585938 98.914062 C 61.238281 99.085938 60.898438 99.277344 60.574219 99.492188 C 60.511719 99.53125 60.453125 99.574219 60.390625 99.617188 C 60.121094 99.800781 59.863281 100.003906 59.609375 100.222656 C 59.546875 100.277344 59.484375 100.332031 59.421875 100.386719 C 59.136719 100.648438 58.867188 100.921875 58.613281 101.222656 C 58.582031 101.253906 58.558594 101.292969 58.53125 101.332031 C 58.320312 101.585938 58.125 101.855469 57.941406 102.136719 C 57.875 102.238281 57.8125 102.339844 57.75 102.449219 C 57.695312 102.539062 57.632812 102.621094 57.582031 102.710938 C 57.488281 102.878906 57.414062 103.046875 57.335938 103.214844 C 57.292969 103.300781 57.246094 103.386719 57.207031 103.46875 C 57.054688 103.824219 56.921875 104.179688 56.8125 104.542969 C 56.796875 104.613281 56.777344 104.683594 56.757812 104.753906 C 56.667969 105.074219 56.601562 105.398438 56.550781 105.726562 C 56.535156 105.808594 56.519531 105.890625 56.511719 105.972656 C 56.457031 106.367188 56.425781 106.765625 56.425781 107.160156 C 56.425781 107.167969 56.425781 107.175781 56.425781 107.183594 L 56.425781 258.707031 C 56.425781 262.054688 58.242188 265.136719 61.175781 266.765625 L 183.824219 334.78125 C 185.214844 335.550781 186.753906 335.9375 188.296875 335.9375 C 189.832031 335.9375 191.375 335.550781 192.765625 334.78125 L 315.417969 266.769531 C 318.34375 265.144531 320.164062 262.058594 320.164062 258.710938 L 320.164062 107.1875 C 320.164062 107.183594 320.164062 107.179688 320.164062 107.171875 C 320.164062 106.769531 320.132812 106.367188 320.078125 105.96875 Z M 188.296875 316.175781 L 74.863281 253.277344 L 74.863281 122.839844 L 135.03125 156.207031 C 136.449219 156.988281 137.980469 157.363281 139.496094 157.363281 C 142.738281 157.363281 145.882812 155.648438 147.566406 152.613281 C 150.035156 148.160156 148.429688 142.546875 143.976562 140.082031 L 85.714844 107.769531 L 188.296875 58.507812 L 290.878906 107.773438 L 232.621094 140.078125 C 228.167969 142.546875 226.554688 148.15625 229.027344 152.609375 C 230.710938 155.648438 233.851562 157.359375 237.097656 157.359375 C 238.609375 157.359375 240.144531 156.984375 241.558594 156.203125 L 301.726562 122.839844 L 301.726562 253.277344 Z M 188.296875 316.175781 " fill-opacity="1" fill-rule="nonzero"/><path fill="#000000" d="M 197.578125 189.335938 C 197.28125 188.394531 196.308594 187.851562 195.351562 188.097656 C 190.734375 189.300781 185.777344 189.296875 181.140625 188.070312 C 180.1875 187.820312 179.203125 188.363281 178.90625 189.304688 L 153.023438 272.046875 C 152.808594 272.738281 153.019531 273.492188 153.558594 273.972656 L 187.019531 303.691406 C 187.367188 304.003906 187.804688 304.15625 188.246094 304.15625 C 188.683594 304.15625 189.117188 304 189.464844 303.695312 L 223.039062 273.976562 C 223.578125 273.5 223.789062 272.738281 223.570312 272.046875 Z M 197.578125 189.335938 " fill-opacity="1" fill-rule="nonzero"/><path fill="#000000" d="M 164.054688 154.15625 L 179.226562 180.171875 C 179.476562 180.59375 179.878906 180.902344 180.351562 181.027344 C 180.859375 181.15625 181.367188 181.308594 181.878906 181.449219 C 183.886719 182.027344 185.964844 182.625 188.296875 182.625 C 190.542969 182.625 192.539062 182.046875 194.472656 181.488281 C 195.019531 181.332031 195.570312 181.171875 196.117188 181.03125 C 196.613281 180.902344 197.027344 180.574219 197.269531 180.128906 L 211.542969 154.019531 C 212.039062 152.980469 212.488281 150.597656 211.019531 148.265625 C 208.347656 144.042969 200.707031 141.898438 188.296875 141.898438 C 175.761719 141.898438 167.890625 144.066406 164.902344 148.332031 C 162.984375 151.074219 163.816406 153.582031 163.914062 153.863281 C 163.957031 153.960938 164 154.058594 164.054688 154.15625 Z M 164.054688 154.15625 " fill-opacity="1" fill-rule="nonzero"/></svg>