<svg xmlns="http://www.w3.org/2000/svg" width="195" height="38" viewBox="0 0 195 38">
  <path
    d="M6.592 30a.78.78 0 00.576-.224.78.78 0 00.224-.576v-7.584H16.8a.78.78 0 00.576-.224.74.74 0 00.224-.544v-2.72a.78.78 0 00-.224-.576.78.78 0 00-.576-.224H7.392V11.92H17.44a.78.78 0 00.576-.224.74.74 0 00.224-.544V8.4a.78.78 0 00-.224-.576.78.78 0 00-.576-.224H3.136a.74.74 0 00-.544.224.78.78 0 00-.224.576v20.8a.78.78 0 00.224.576c.15.15.33.224.544.224h3.456zm22.528.32c1.75 0 3.221-.293 4.416-.88 1.195-.587 2.107-1.424 2.736-2.512.63-1.088.987-2.357 1.072-3.808.021-.427.032-.912.032-1.456 0-.544-.01-1.019-.032-1.424-.085-1.472-.459-2.747-1.12-3.824s-1.59-1.91-2.784-2.496c-1.195-.587-2.635-.88-4.32-.88-1.707 0-3.157.293-4.352.88-1.195.587-2.123 1.419-2.784 2.496-.661 1.077-1.024 2.352-1.088 3.824-.021.405-.032.88-.032 1.424 0 .544.01 1.03.032 1.456.064 1.45.41 2.72 1.04 3.808.63 1.088 1.541 1.925 2.736 2.512 1.195.587 2.677.88 4.448.88zm0-3.552c-1.045 0-1.835-.32-2.368-.96-.533-.64-.832-1.59-.896-2.848-.021-.32-.032-.747-.032-1.28s.01-.96.032-1.28c.064-1.237.363-2.181.896-2.832.533-.65 1.323-.976 2.368-.976s1.83.325 2.352.976c.523.65.816 1.595.88 2.832.021.32.032.747.032 1.28s-.01.96-.032 1.28c-.064 1.259-.357 2.208-.88 2.848-.523.64-1.307.96-2.352.96zM44.896 30c.213 0 .4-.075.56-.224.16-.15.24-.341.24-.576v-8.48c0-.939.261-1.675.784-2.208.523-.533 1.264-.8 2.224-.8h2.784a.78.78 0 00.576-.224.74.74 0 00.224-.544V14.16a.78.78 0 00-.224-.576.78.78 0 00-.576-.224h-1.376c-1.003 0-1.899.181-2.688.544-.79.363-1.45.875-1.984 1.536v-1.28c0-.213-.075-.4-.224-.56a.753.753 0 00-.576-.24h-3.136c-.213 0-.4.08-.56.24a.768.768 0 00-.24.56V29.2c0 .235.08.427.24.576.16.15.347.224.56.224h3.392zm13.792 0a.78.78 0 00.576-.224.78.78 0 00.224-.576v-8.896c0-.853.133-1.525.4-2.016.267-.49.608-.848 1.024-1.072a2.699 2.699 0 011.296-.336c.49 0 .944.112 1.36.336.416.224.752.581 1.008 1.072.256.49.384 1.173.384 2.048V29.2a.78.78 0 00.224.576.78.78 0 00.576.224h3.168a.74.74 0 00.544-.224.78.78 0 00.224-.576v-8.864c0-.875.133-1.557.4-2.048.267-.49.608-.848 1.024-1.072a2.699 2.699 0 011.296-.336c.512 0 .976.112 1.392.336.416.224.747.581.992 1.072.245.49.368 1.173.368 2.048V29.2a.78.78 0 00.224.576.78.78 0 00.576.224h3.168c.213 0 .4-.075.56-.224.16-.15.24-.341.24-.576v-9.12c0-1.621-.267-2.95-.8-3.984-.533-1.035-1.248-1.803-2.144-2.304-.896-.501-1.899-.752-3.008-.752-1.11 0-2.123.261-3.04.784-.917.523-1.621 1.2-2.112 2.032-.939-1.92-2.635-2.859-5.088-2.816-1.045.021-1.947.245-2.704.672-.757.427-1.36.939-1.808 1.536V14.16a.78.78 0 00-.224-.576.78.78 0 00-.576-.224h-2.976c-.213 0-.4.075-.56.224a.753.753 0 00-.24.576V29.2c0 .235.08.427.24.576.16.15.347.224.56.224h3.232z"
    fill="#2E384D"
  />
  <path
    d="M94.72 30c1.685 0 3.115-.277 4.288-.832 1.173-.555 2.064-1.333 2.672-2.336.608-1.003.912-2.176.912-3.52 0-1.216-.32-2.267-.96-3.152-.64-.885-1.376-1.52-2.208-1.904.384-.192.784-.48 1.2-.864.416-.384.768-.875 1.056-1.472.288-.597.432-1.29.432-2.08 0-1.259-.267-2.357-.8-3.296-.533-.939-1.37-1.664-2.512-2.176-1.141-.512-2.597-.768-4.368-.768h-9.536a.74.74 0 00-.544.224.78.78 0 00-.224.576v20.8a.78.78 0 00.224.576c.15.15.33.224.544.224h9.824zm-.896-13.344h-4.608v-5.28h4.608c1.003 0 1.755.235 2.256.704.501.47.752 1.099.752 1.888 0 .79-.25 1.435-.752 1.936-.501.501-1.253.752-2.256.752zm.288 9.568h-4.896v-5.888h4.896c1.024 0 1.808.283 2.352.848.544.565.816 1.264.816 2.096a2.97 2.97 0 01-.8 2.064c-.533.587-1.323.88-2.368.88zm18.016 4.096c1.259 0 2.325-.203 3.2-.608a5.397 5.397 0 002.144-1.76V29.2a.78.78 0 00.224.576c.15.15.33.224.544.224h3.168a.74.74 0 00.544-.224.78.78 0 00.224-.576V14.16a.78.78 0 00-.224-.576.74.74 0 00-.544-.224h-3.392a.78.78 0 00-.576.224.78.78 0 00-.224.576v8.736c0 1.13-.293 2.01-.88 2.64-.587.63-1.381.944-2.384.944-2.09 0-3.136-1.195-3.136-3.584V14.16a.78.78 0 00-.224-.576.74.74 0 00-.544-.224h-3.424c-.213 0-.4.075-.56.224a.753.753 0 00-.24.576v8.928c0 1.536.267 2.843.8 3.92s1.275 1.899 2.224 2.464c.95.565 2.043.848 3.28.848zm18.144-19.52c.213 0 .4-.075.56-.224.16-.15.24-.341.24-.576V7.408c0-.213-.08-.4-.24-.56a.768.768 0 00-.56-.24h-3.392a.717.717 0 00-.544.24.795.795 0 00-.224.56V10a.78.78 0 00.224.576c.15.15.33.224.544.224h3.392zm-.064 19.2a.74.74 0 00.544-.224.78.78 0 00.224-.576V14.16a.78.78 0 00-.224-.576.74.74 0 00-.544-.224h-3.232c-.213 0-.4.075-.56.224a.753.753 0 00-.24.576V29.2c0 .235.08.427.24.576.16.15.347.224.56.224h3.232zm8.8 0a.78.78 0 00.576-.224.78.78 0 00.224-.576V8.08a.78.78 0 00-.224-.576.78.78 0 00-.576-.224h-3.2a.78.78 0 00-.576.224.78.78 0 00-.224.576V29.2a.78.78 0 00.224.576.78.78 0 00.576.224h3.2zm11.008.32c1.216 0 2.23-.208 3.04-.624.81-.416 1.483-.944 2.016-1.584V29.2a.78.78 0 00.224.576c.15.15.33.224.544.224h3.072a.78.78 0 00.576-.224.78.78 0 00.224-.576V8.08a.78.78 0 00-.224-.576.78.78 0 00-.576-.224h-3.296a.78.78 0 00-.576.224.78.78 0 00-.224.576v6.944c-.512-.576-1.163-1.05-1.952-1.424-.79-.373-1.739-.56-2.848-.56-1.067 0-2.021.187-2.864.56a5.768 5.768 0 00-2.112 1.568c-.565.672-1.003 1.467-1.312 2.384-.31.917-.485 1.93-.528 3.04-.021.384-.032.741-.032 1.072 0 .33.01.699.032 1.104.064 1.13.245 2.16.544 3.088.299.928.736 1.728 1.312 2.4a5.63 5.63 0 002.112 1.536c.832.352 1.781.528 2.848.528zm1.472-3.84c-.81 0-1.45-.176-1.92-.528a2.9 2.9 0 01-1.008-1.392 6.978 6.978 0 01-.368-1.888 15.392 15.392 0 010-1.984 6.978 6.978 0 01.368-1.888 2.9 2.9 0 011.008-1.392c.47-.352 1.11-.528 1.92-.528.768 0 1.387.17 1.856.512.47.341.827.773 1.072 1.296a4.27 4.27 0 01.4 1.68c.043.384.064.779.064 1.184 0 .405-.021.81-.064 1.216a5.21 5.21 0 01-.368 1.792 3.194 3.194 0 01-1.056 1.376c-.48.363-1.115.544-1.904.544zm19.68 3.84c1.237 0 2.33-.16 3.28-.48.95-.32 1.744-.72 2.384-1.2.64-.48 1.125-.97 1.456-1.472.33-.501.507-.933.528-1.296a.538.538 0 00-.176-.48.706.706 0 00-.496-.192h-3.392c-.235 0-.41.027-.528.08-.117.053-.272.197-.464.432a3.525 3.525 0 01-1.344 1.072c-.341.16-.768.24-1.28.24-.661 0-1.221-.17-1.68-.512a3.17 3.17 0 01-1.04-1.36 5.274 5.274 0 01-.384-1.872v-.224h10.432c.235 0 .427-.08.576-.24a.795.795 0 00.224-.56v-.736c0-1.643-.304-3.099-.912-4.368a7.027 7.027 0 00-2.704-3.008c-1.195-.736-2.699-1.104-4.512-1.104-1.6 0-2.997.315-4.192.944a6.707 6.707 0 00-2.784 2.72c-.661 1.184-1.035 2.608-1.12 4.272v1.344c.085 2.603.848 4.587 2.288 5.952 1.44 1.365 3.387 2.048 5.84 2.048zm3.104-10.208h-6.24v-.096c0-.747.123-1.403.368-1.968s.597-1.008 1.056-1.328c.459-.32 1.019-.48 1.68-.48s1.227.16 1.696.48c.47.32.827.763 1.072 1.328.245.565.368 1.221.368 1.968v.096zM186.656 30c.213 0 .4-.075.56-.224.16-.15.24-.341.24-.576v-8.48c0-.939.261-1.675.784-2.208.523-.533 1.264-.8 2.224-.8h2.784a.78.78 0 00.576-.224.74.74 0 00.224-.544V14.16a.78.78 0 00-.224-.576.78.78 0 00-.576-.224h-1.376c-1.003 0-1.899.181-2.688.544-.79.363-1.45.875-1.984 1.536v-1.28c0-.213-.075-.4-.224-.56a.753.753 0 00-.576-.24h-3.136c-.213 0-.4.08-.56.24a.768.768 0 00-.24.56V29.2c0 .235.08.427.24.576.16.15.347.224.56.224h3.392z"
    fill="#3D5BFF"
  />
</svg>
