<svg width="549" height="618" viewBox="0 0 549 618" fill="none" xmlns="http://www.w3.org/2000/svg">
<path d="M548.394 139.179C548.375 139.023 548.344 138.868 548.319 138.706C548.207 138.003 548.058 137.306 547.865 136.616C547.834 136.491 547.809 136.366 547.771 136.242C547.541 135.476 547.261 134.717 546.925 133.971C546.859 133.816 546.786 133.665 546.707 133.516C546.539 133.143 546.365 132.776 546.172 132.409C546.054 132.209 545.917 132.023 545.799 131.824C545.674 131.624 545.562 131.438 545.438 131.245C545.04 130.629 544.606 130.037 544.138 129.472C544.1 129.422 544.069 129.372 544.025 129.335C543.492 128.711 542.923 128.118 542.32 127.561C542.202 127.461 542.09 127.362 541.972 127.263C541.433 126.799 540.87 126.362 540.286 125.956C540.167 125.881 540.068 125.8 539.956 125.726C539.273 125.271 538.56 124.864 537.822 124.506L537.691 124.431L282.591 1.90299C280.001 0.66179 277.165 0.0174561 274.293 0.0174561C271.421 0.0174561 268.585 0.66179 265.995 1.90299L10.8881 124.425C10.8381 124.45 10.7951 124.481 10.7451 124.506C10.0231 124.866 9.32009 125.266 8.64209 125.707C8.51209 125.787 8.38709 125.881 8.26209 125.968C7.70209 126.354 7.16109 126.778 6.63809 127.231C6.50809 127.344 6.37709 127.456 6.24609 127.574C5.64843 128.117 5.08532 128.697 4.56009 129.31C4.49809 129.378 4.44809 129.46 4.39209 129.534C3.79179 130.267 3.24885 131.045 2.76809 131.861C2.65609 132.048 2.52509 132.222 2.41909 132.409C2.22609 132.751 2.07109 133.106 1.90309 133.454C1.81609 133.634 1.72309 133.809 1.64109 133.983C1.31809 134.723 1.04409 135.464 0.820091 136.217L0.708092 136.652C0.523561 137.317 0.377983 137.993 0.272095 138.675C0.242095 138.849 0.210093 139.017 0.192093 139.191C0.0781143 140.009 0.0196444 140.835 0.0170898 141.661V456.878C0.0176203 460.299 0.933619 463.658 2.67004 466.606C4.40647 469.554 6.90006 471.983 9.89209 473.642L264.993 615.118C267.841 616.693 271.042 617.52 274.296 617.52C277.548 617.519 280.747 616.692 283.592 615.118L538.7 473.654C541.691 471.994 544.184 469.564 545.92 466.617C547.656 463.67 548.573 460.312 548.575 456.891V141.687C548.575 140.847 548.513 140.013 548.395 139.179H548.394ZM274.296 576.42L38.3601 445.59V174.275L163.508 243.675C166.348 245.253 169.543 246.082 172.792 246.084C179.537 246.084 186.077 242.518 189.581 236.202C194.714 226.943 191.373 215.269 182.114 210.136L60.9361 142.93L274.296 40.463L487.66 142.937L366.49 210.13C357.225 215.263 353.87 226.937 359.017 236.196C362.514 242.518 369.054 246.077 375.799 246.077C378.948 246.077 382.14 245.3 385.077 243.669L510.225 174.275V445.592L274.296 576.42Z" fill="black"/>
<path d="M293.604 312.583C293.309 311.643 292.664 310.851 291.803 310.373C290.941 309.895 289.928 309.766 288.974 310.013C279.367 312.515 269.056 312.503 259.411 309.957C258.456 309.707 257.442 309.834 256.578 310.311C255.714 310.788 255.066 311.58 254.769 312.521L200.932 484.631C200.713 485.334 200.702 486.086 200.899 486.795C201.097 487.505 201.495 488.143 202.045 488.632L271.639 550.453C272.342 551.077 273.249 551.421 274.189 551.418C275.099 551.418 276.001 551.094 276.729 550.46L346.559 488.638C347.112 488.148 347.511 487.508 347.707 486.795C347.903 486.083 347.889 485.329 347.666 484.625L293.604 312.583ZM223.874 239.412L255.435 293.523C255.948 294.401 256.787 295.04 257.769 295.303C258.826 295.577 259.884 295.888 260.949 296.187C265.124 297.387 269.449 298.626 274.296 298.626C278.969 298.626 283.126 297.425 287.146 296.261C288.284 295.938 289.423 295.601 290.568 295.309C291.074 295.176 291.547 294.942 291.959 294.62C292.371 294.298 292.713 293.895 292.963 293.436L322.651 239.132C323.678 236.967 324.611 232.007 321.556 227.16C316.006 218.373 300.113 213.918 274.296 213.918C248.223 213.918 231.858 218.423 225.636 227.297C221.646 233.003 223.376 238.217 223.582 238.802C223.669 239.008 223.762 239.212 223.874 239.412Z" fill="black"/>
</svg>
