<svg width="800" height="200" viewBox="0 0 800 200" fill="none" xmlns="http://www.w3.org/2000/svg">
<path d="M236.235 134.364H285.704L248.442 67.647C245.006 67.9781 241.372 68.886 237.805 73.9195C232.078 82.0001 195.752 133.355 189.855 141.709C183.216 151.113 175.216 155.306 168.58 157.291C162.712 159.111 157.781 159.111 155.309 159.111H140.668L80 41H187.836L170.31 65.7809H120.82L158.076 132.511C161.512 132.18 165.144 131.26 168.711 126.227C174.438 118.146 210.764 66.7889 216.661 58.4354C223.3 49.0311 231.302 44.8399 237.938 42.8545C243.824 41.0936 248.736 41 251.208 41H265.845L326.51 159.115L218.689 159.144L236.235 134.364V134.364Z" fill="#00D5B0"/>
<path d="M335.165 60.9541H353.877L374.753 104.03L395.626 60.9541H414.341L374.753 137.704L335.165 60.9541H335.165Z" fill="white"/>
<path d="M413.245 98.6648C413.245 76.6015 429.175 59.3877 449.677 59.3877C459.298 59.3877 467.499 63.1441 472.862 69.2457V60.9539H490.211V136.066H472.862V127.929C467.499 134.031 459.298 137.63 449.677 137.63C429.175 137.63 413.245 120.573 413.245 98.6648V98.6648ZM473.965 98.5098C473.965 85.0525 465.292 75.6635 452.518 75.6635C439.897 75.6635 431.068 85.0525 431.068 98.5098C431.068 111.967 439.897 121.356 452.518 121.356C465.292 121.356 473.965 111.967 473.965 98.5098Z" fill="white"/>
<path d="M500.11 136.066L538.95 76.6017H504.6V60.9541H568.629L529.888 120.418H563.699V136.066H500.11V136.066Z" fill="white"/>
<path d="M568.629 98.5099C568.629 76.4445 585.82 59.3877 608.374 59.3877C620.044 59.3877 630.769 64.0822 637.867 72.3761L626.513 83.8003C622.096 78.6347 615.788 75.9754 608.374 75.9754C595.441 75.9754 586.451 85.2074 586.451 98.5098C586.451 111.81 595.441 121.044 608.374 121.044C615.788 121.044 622.096 118.383 626.513 113.219L637.867 124.642C630.769 132.935 620.044 137.63 608.374 137.63C585.82 137.63 568.629 120.573 568.629 98.5098V98.5099Z" fill="white"/>
<path d="M640.669 98.3528C640.669 76.6015 658.018 59.3877 680.255 59.3877C702.495 59.3877 720 76.4445 720 98.3528C720 120.418 702.653 137.63 680.255 137.63C658.174 137.63 640.669 120.261 640.669 98.3528V98.3528ZM702.178 98.3528C702.178 85.2074 693.032 75.9755 680.255 75.9755C667.481 75.9755 658.491 85.3645 658.491 98.3528C658.491 111.653 667.481 121.044 680.255 121.044C693.19 121.044 702.178 111.653 702.178 98.3528Z" fill="white"/>
</svg>
