<svg version="1.2" viewBox="0 0 41.25 41.250001" height="41.250001pt" width="41.25pt" xmlns:xlink="http://www.w3.org/1999/xlink" xmlns="http://www.w3.org/2000/svg">
<g id="surface1">
<g clip-rule="nonzero" clip-path="url(#clip1)">
<path d="M 30.371094 1.324219 C 30.242188 1.195312 30.070312 1.117188 29.875 1.128906 C 29.6875 1.136719 29.515625 1.222656 29.394531 1.363281 L 24.535156 7.046875 L 20.238281 7.925781 L 15.945312 7.046875 L 11.085938 1.363281 C 10.964844 1.222656 10.789062 1.136719 10.605469 1.128906 C 10.421875 1.125 10.238281 1.191406 10.105469 1.324219 L 0.632812 10.882812 C 0.390625 11.125 0.375 11.515625 0.601562 11.777344 L 5.535156 17.550781 L 6.367188 19.695312 L 4.242188 22.183594 C 2.660156 24.03125 2.785156 26.808594 4.523438 28.507812 L 14.394531 38.144531 C 15.304688 39.027344 16.476562 39.476562 17.652344 39.476562 C 18.554688 39.476562 19.453125 39.195312 20.238281 38.667969 C 20.996094 39.175781 21.886719 39.46875 22.820312 39.46875 C 23.925781 39.46875 24.996094 39.074219 25.839844 38.359375 C 25.925781 38.289062 26 38.21875 26.078125 38.144531 L 36.835938 27.640625 C 38.078125 26.425781 38.167969 24.445312 37.039062 23.125 L 35.707031 21.566406 C 35.214844 20.988281 34.523438 20.632812 33.796875 20.5 L 34.941406 17.550781 L 39.875 11.777344 C 40.097656 11.515625 40.085938 11.125 39.84375 10.878906 Z M 2.011719 11.382812 L 10.542969 2.773438 L 15.085938 8.078125 C 15.179688 8.191406 15.3125 8.269531 15.457031 8.300781 L 20.105469 9.25 C 20.109375 9.25 20.113281 9.25 20.113281 9.25 L 26.0625 10.46875 C 27.480469 10.757812 28.398438 12.144531 28.105469 13.554688 C 27.8125 14.96875 26.425781 15.886719 25.007812 15.59375 L 18.957031 14.355469 C 18.359375 14.234375 17.742188 14.300781 17.175781 14.546875 C 15.082031 15.464844 12.777344 15.738281 10.523438 15.34375 C 10.292969 15.304688 10.054688 15.390625 9.902344 15.566406 L 7.351562 18.550781 L 6.738281 16.96875 C 6.714844 16.898438 6.675781 16.835938 6.625 16.777344 Z M 15.332031 37.195312 L 14.863281 36.742188 L 17.242188 34.160156 C 17.324219 34.964844 17.597656 35.757812 18.109375 36.453125 C 18.175781 36.539062 18.242188 36.625 18.3125 36.703125 L 19.207031 37.753906 C 17.953125 38.421875 16.390625 38.230469 15.332031 37.195312 Z M 24.980469 37.351562 C 24.378906 37.863281 23.613281 38.144531 22.828125 38.144531 C 21.847656 38.144531 20.925781 37.722656 20.292969 36.980469 L 19.324219 35.847656 C 19.273438 35.789062 19.226562 35.730469 19.183594 35.667969 C 18.09375 34.195312 18.40625 32.117188 19.878906 31.03125 L 20.160156 30.824219 L 25.617188 36.738281 L 25.148438 37.195312 C 25.09375 37.25 25.035156 37.304688 24.980469 37.351562 Z M 29.234375 24.148438 L 33.632812 28.917969 L 30.578125 31.902344 L 25.773438 26.699219 Z M 24.695312 27.488281 L 29.625 32.828125 L 26.570312 35.8125 L 21.238281 30.035156 Z M 36.03125 23.984375 C 36.707031 24.777344 36.652344 25.96875 35.910156 26.695312 L 34.582031 27.988281 L 30.308594 23.359375 L 31.996094 22.117188 C 32.339844 21.863281 32.75 21.730469 33.183594 21.730469 C 33.765625 21.730469 34.320312 21.984375 34.703125 22.429688 Z M 33.855469 16.777344 C 33.808594 16.835938 33.769531 16.898438 33.742188 16.96875 L 32.363281 20.519531 C 31.949219 20.621094 31.554688 20.792969 31.203125 21.050781 L 19.089844 29.96875 C 17.980469 30.78125 17.359375 32 17.238281 33.273438 C 17.226562 33.257812 17.21875 33.238281 17.203125 33.222656 C 16.9375 32.976562 16.511719 32.992188 16.265625 33.265625 L 13.910156 35.8125 L 10.851562 32.832031 L 15.957031 27.304688 C 16.207031 27.035156 16.1875 26.613281 15.917969 26.367188 C 15.648438 26.117188 15.226562 26.136719 14.976562 26.40625 L 9.902344 31.898438 L 6.847656 28.914062 L 11.828125 23.519531 C 12.078125 23.25 12.0625 22.828125 11.789062 22.582031 C 11.519531 22.332031 11.097656 22.351562 10.847656 22.621094 L 5.894531 27.988281 L 5.457031 27.558594 C 4.210938 26.34375 4.125 24.363281 5.25 23.042969 L 10.667969 16.710938 C 13.0625 17.058594 15.488281 16.734375 17.707031 15.757812 C 18.015625 15.625 18.351562 15.589844 18.683594 15.65625 L 24.730469 16.890625 C 25.765625 17.101562 26.824219 16.898438 27.703125 16.320312 C 28.589844 15.742188 29.191406 14.855469 29.402344 13.824219 C 29.839844 11.695312 28.457031 9.605469 26.324219 9.167969 L 23.542969 8.601562 L 25.019531 8.296875 C 25.164062 8.269531 25.292969 8.191406 25.390625 8.078125 L 29.929688 2.769531 L 38.464844 11.378906 Z M 33.855469 16.777344" style="stroke:none;fill-rule:nonzero;fill:rgb(11.759949%,48.629761%,94.119263%);fill-opacity:1;"></path>
</g>
</g>
</svg>
