<svg
  width="500"
  zoomAndPan="magnify"
  viewBox="0 0 375 374.999991"
  height="500"
  preserveAspectRatio="xMidYMid meet"
  version="1.0"
>
  <path
    fill="#00abff"
    d="M 126.605469 168.632812 C 153.078125 168.632812 174.535156 147.164062 174.535156 120.6875 C 174.535156 94.207031 153.078125 72.742188 126.605469 72.742188 C 100.136719 72.742188 78.679688 94.207031 78.679688 120.6875 C 78.679688 147.164062 100.136719 168.632812 126.605469 168.632812 Z M 126.605469 168.632812 "
    fill-opacity="1"
    fill-rule="nonzero"
  />
  <path
    fill="#00141e"
    d="M 327.011719 109.347656 L 261.417969 109.347656 L 261.417969 43.730469 L 279.734375 43.730469 L 279.734375 91.019531 L 327.011719 91.019531 Z M 327.011719 109.347656 "
    fill-opacity="1"
    fill-rule="nonzero"
  />
  <path
    fill="#00141e"
    d="M 342.839844 338.800781 L 32.035156 338.800781 L 32.035156 27.886719 L 274.367188 27.886719 L 342.839844 96.382812 Z M 50.355469 320.472656 L 324.519531 320.472656 L 324.519531 103.976562 L 266.777344 46.210938 L 50.355469 46.210938 Z M 50.355469 320.472656 "
    fill-opacity="1"
    fill-rule="nonzero"
  />
  <path
    fill="#00141e"
    d="M 125.847656 179.15625 C 94.195312 179.15625 68.445312 153.394531 68.445312 121.730469 C 68.445312 90.070312 94.195312 64.308594 125.847656 64.308594 C 157.5 64.308594 183.25 90.070312 183.25 121.730469 C 183.25 153.394531 157.5 179.15625 125.847656 179.15625 Z M 125.847656 82.636719 C 104.296875 82.636719 86.765625 100.175781 86.765625 121.730469 C 86.765625 143.289062 104.296875 160.828125 125.847656 160.828125 C 147.398438 160.828125 164.929688 143.289062 164.929688 121.730469 C 164.929688 100.175781 147.398438 82.636719 125.847656 82.636719 Z M 125.847656 82.636719 "
    fill-opacity="1"
    fill-rule="nonzero"
  />
  <path
    fill="#00141e"
    d="M 174.082031 130.894531 L 116.679688 130.894531 L 116.679688 73.472656 L 135 73.472656 L 135 112.570312 L 174.082031 112.570312 Z M 174.082031 130.894531 "
    fill-opacity="1"
    fill-rule="nonzero"
  />
  <path
    fill="#00141e"
    d="M 119.375 115.242188 L 85.695312 148.933594 L 98.652344 161.890625 L 132.328125 128.199219 Z M 119.375 115.242188 "
    fill-opacity="1"
    fill-rule="nonzero"
  />
  <path
    fill="#00141e"
    d="M 195.933594 284.054688 L 68.5 284.054688 L 68.5 302.378906 L 195.933594 302.378906 Z M 195.933594 284.054688 "
    fill-opacity="1"
    fill-rule="nonzero"
  />
  <path
    fill="#00141e"
    d="M 104.960938 233.125 L 86.644531 233.125 L 86.644531 292.613281 L 104.960938 292.613281 Z M 104.960938 233.125 "
    fill-opacity="1"
    fill-rule="nonzero"
  />
  <path
    fill="#00141e"
    d="M 141.375 207.027344 L 123.054688 207.027344 L 123.054688 292.617188 L 141.375 292.617188 Z M 141.375 207.027344 "
    fill-opacity="1"
    fill-rule="nonzero"
  />
  <path
    fill="#00141e"
    d="M 177.785156 233.125 L 159.464844 233.125 L 159.464844 292.613281 L 177.785156 292.613281 Z M 177.785156 233.125 "
    fill-opacity="1"
    fill-rule="nonzero"
  />
  <path
    fill="#00141e"
    d="M 306.367188 211.207031 L 214.128906 211.207031 L 214.128906 229.53125 L 306.367188 229.53125 Z M 306.367188 211.207031 "
    fill-opacity="1"
    fill-rule="nonzero"
  />
  <path
    fill="#00141e"
    d="M 306.367188 174.78125 L 214.128906 174.78125 L 214.128906 193.109375 L 306.367188 193.109375 Z M 306.367188 174.78125 "
    fill-opacity="1"
    fill-rule="nonzero"
  />
  <path
    fill="#00141e"
    d="M 306.367188 247.628906 L 214.128906 247.628906 L 214.128906 265.957031 L 306.367188 265.957031 Z M 306.367188 247.628906 "
    fill-opacity="1"
    fill-rule="nonzero"
  />
  <path
    fill="#00141e"
    d="M 306.367188 284.054688 L 214.128906 284.054688 L 214.128906 302.378906 L 306.367188 302.378906 Z M 306.367188 284.054688 "
    fill-opacity="1"
    fill-rule="nonzero"
  />
  <path
    fill="#00141e"
    d="M 306.371094 138.355469 L 288.167969 138.355469 L 288.167969 156.683594 L 306.371094 156.683594 Z M 306.371094 138.355469 "
    fill-opacity="1"
    fill-rule="nonzero"
  />
  <path
    fill="#00141e"
    d="M 269.957031 138.355469 L 251.753906 138.355469 L 251.753906 156.683594 L 269.957031 156.683594 Z M 269.957031 138.355469 "
    fill-opacity="1"
    fill-rule="nonzero"
  />
</svg>
