<svg
  width="500"
  zoomAndPan="magnify"
  viewBox="0 0 375 374.999991"
  height="500"
>
  <path
    fill="#00abff"
    d="M 250.117188 337.839844 C 202.941406 337.839844 161.441406 306.179688 149.199219 260.84375 L 146.878906 252.246094 L 155.398438 249.652344 C 171.566406 244.746094 186.507812 235.753906 198.609375 223.644531 C 201.175781 221.078125 203.574219 218.414062 205.886719 215.667969 C 210.316406 210.085938 213.976562 204.566406 216.917969 199.011719 C 224.9375 183.980469 229.171875 166.949219 229.171875 149.734375 C 229.171875 146.371094 229.003906 143.015625 228.667969 139.730469 L 227.761719 130.882812 L 236.574219 129.6875 C 241.027344 129.085938 245.582031 128.78125 250.117188 128.78125 C 307.707031 128.78125 354.5625 175.699219 354.5625 233.355469 C 354.5625 249.492188 351.007812 264.945312 343.984375 279.300781 L 352.574219 335.847656 L 296.035156 327.214844 L 295.992188 327.242188 C 281.894531 334.242188 266.390625 337.839844 250.117188 337.839844 Z M 250.117188 337.839844 "
    fill-opacity="1"
    fill-rule="nonzero"
  />
  <path
    fill="#00abff"
    d="M 334.449219 277.828125 L 341.613281 324.878906 L 294.671875 317.710938 L 292.101562 318.90625 C 278.964844 325.429688 264.816406 328.644531 250.121094 328.644531 C 206.667969 328.644531 169.1875 299.609375 158.074219 258.441406 C 175.617188 253.109375 191.785156 243.460938 205.105469 230.136719 C 207.863281 227.378906 210.433594 224.53125 212.914062 221.589844 C 217.507812 215.800781 221.640625 209.734375 225.042969 203.304688 C 233.769531 186.945312 238.359375 168.660156 238.359375 149.726562 C 238.359375 146.054688 238.175781 142.378906 237.808594 138.792969 C 241.851562 138.242188 245.984375 137.964844 250.121094 137.964844 C 302.664062 137.964844 345.378906 180.789062 345.378906 233.351562 C 345.378906 248.058594 342.164062 262.113281 335.734375 275.257812 Z M 334.449219 277.828125 "
    fill-opacity="1"
    fill-rule="nonzero"
  />
  <path
    fill="#00141e"
    d="M 124.710938 263.378906 C 108.136719 263.378906 92.199219 259.894531 77.285156 253.027344 L 11.339844 263.117188 L 21.386719 197.074219 C 14.539062 182.171875 11.070312 166.25 11.070312 149.695312 C 11.070312 119.332031 22.890625 90.78125 44.355469 69.308594 C 65.820312 47.839844 94.355469 36.015625 124.710938 36.015625 C 155.066406 36.015625 183.605469 47.839844 205.070312 69.308594 C 226.53125 90.78125 238.355469 119.328125 238.355469 149.695312 C 238.355469 180.058594 226.53125 208.609375 205.066406 230.082031 C 183.605469 251.550781 155.066406 263.378906 124.710938 263.378906 Z M 80.140625 234.042969 L 82.722656 235.3125 C 95.855469 241.769531 109.980469 245.042969 124.710938 245.042969 C 177.265625 245.042969 220.023438 202.269531 220.023438 149.695312 C 220.023438 97.121094 177.265625 54.347656 124.710938 54.347656 C 72.15625 54.347656 29.398438 97.121094 29.398438 149.695312 C 29.398438 164.40625 32.660156 178.519531 39.09375 191.636719 L 40.359375 194.214844 L 33.210938 241.222656 Z M 80.140625 234.042969 "
    fill-opacity="1"
    fill-rule="nonzero"
  />
  <path
    fill="#00141e"
    d="M 250.089844 346.980469 C 223.25 346.980469 197.203125 337.445312 176.738281 320.128906 C 156.519531 303.023438 142.839844 279.3125 138.214844 253.371094 L 156.261719 250.152344 C 164.363281 295.636719 203.824219 328.644531 250.089844 328.644531 C 264.820312 328.644531 278.949219 325.371094 292.078125 318.914062 L 294.660156 317.644531 L 341.589844 324.824219 L 334.441406 277.820312 L 335.707031 275.242188 C 342.140625 262.121094 345.402344 248.011719 345.402344 233.296875 C 345.402344 180.722656 302.644531 137.953125 250.089844 137.953125 C 243.15625 137.953125 236.238281 138.699219 229.535156 140.171875 L 225.601562 122.265625 C 233.59375 120.507812 241.835938 119.617188 250.089844 119.617188 C 280.445312 119.617188 308.984375 131.441406 330.445312 152.914062 C 351.910156 174.386719 363.730469 202.933594 363.730469 233.296875 C 363.730469 249.851562 360.261719 265.777344 353.414062 280.675781 L 363.460938 346.71875 L 297.519531 336.628906 C 282.605469 343.5 266.664062 346.980469 250.089844 346.980469 Z M 250.089844 346.980469 "
    fill-opacity="1"
    fill-rule="nonzero"
  />
  <path
    fill="#00141e"
    d="M 302.289062 245.039062 L 197.894531 245.039062 L 197.894531 263.375 L 302.289062 263.375 Z M 302.289062 245.039062 "
    fill-opacity="1"
    fill-rule="nonzero"
  />
  <path
    fill="#00141e"
    d="M 302.289062 203.238281 L 208.308594 203.238281 L 208.308594 221.574219 L 302.289062 221.574219 Z M 302.289062 203.238281 "
    fill-opacity="1"
    fill-rule="nonzero"
  />
  <path
    fill="#00141e"
    d="M 111.253906 189.859375 L 78.964844 157.558594 L 92.113281 144.40625 L 111.554688 163.855469 L 161.886719 115.792969 L 174.726562 129.25 Z M 111.253906 189.859375 "
    fill-opacity="1"
    fill-rule="nonzero"
  />
</svg>
