<svg xmlns="http://www.w3.org/2000/svg" xmlns:xlink="http://www.w3.org/1999/xlink" width="500" zoomAndPan="magnify" viewBox="0 0 375 374.999991" height="500" preserveAspectRatio="xMidYMid meet" version="1.0">
  <path fill="#00abff" d="M 244.601562 261.457031 C 234.589844 261.457031 225.382812 256.730469 219.972656 248.808594 C 213.597656 240.679688 205.109375 215.851562 207.613281 200.46875 L 209.601562 188.269531 L 220.6875 193.742188 C 227.441406 197.074219 234.933594 199.191406 242.660156 201.238281 C 254.273438 204.425781 263.976562 207.097656 268.9375 213.957031 C 273.617188 220.496094 275.449219 228.445312 274.128906 236.359375 C 272.808594 244.269531 268.503906 251.195312 262.003906 255.839844 C 257.148438 259.472656 251.070312 261.457031 244.601562 261.457031 Z M 244.601562 261.457031 " fill-opacity="1" fill-rule="nonzero"/>
  <path fill="#00abff" d="M 314.933594 335.03125 L 251.933594 264.066406 L 261.234375 258.359375 C 265.167969 255.945312 268.660156 252.507812 271.078125 248.667969 L 276.78125 239.589844 L 347.660156 301.703125 L 347.660156 335.03125 Z M 314.933594 335.03125 " fill-opacity="1" fill-rule="nonzero"/>
  <path fill="#00141e" d="M 357.417969 35.941406 L 17.425781 35.941406 L 17.425781 309.625 L 276.265625 309.625 L 309.0625 346.582031 L 357.367188 346.582031 L 357.367188 299.660156 L 357.417969 299.660156 Z M 337.496094 55.871094 L 337.496094 115.65625 L 37.347656 115.65625 L 37.347656 55.871094 Z M 37.347656 135.582031 L 113.050781 135.582031 L 113.050781 289.695312 L 37.347656 289.695312 Z M 132.96875 289.695312 L 132.96875 135.582031 L 337.496094 135.582031 L 337.496094 280.121094 L 284.238281 233.375 C 284.503906 224.746094 282.058594 215.972656 276.660156 208.421875 C 269.492188 198.402344 256.785156 194.957031 244.5 191.625 C 234.664062 188.960938 224.488281 186.203125 217.425781 180.375 L 210.074219 174.308594 L 203.691406 181.386719 C 186.828125 200.089844 199.191406 240.445312 210.269531 255.9375 C 217.890625 266.722656 230.59375 273.140625 243.777344 273.015625 L 258.578125 289.695312 Z M 255.621094 249.179688 C 246.621094 255.902344 232.816406 253.613281 226.472656 244.339844 C 220.875 237.214844 213.636719 215.035156 215.582031 202.683594 C 223.363281 206.542969 231.667969 208.796875 239.292969 210.863281 C 248.617188 213.390625 257.425781 215.777344 260.457031 220.019531 C 267.160156 229.390625 264.992188 242.472656 255.621094 249.179688 Z M 337.445312 326.652344 L 318.015625 326.652344 L 264.96875 266.875 C 270.179688 263.679688 274.660156 259.175781 277.800781 254.234375 L 337.445312 306.589844 Z M 337.445312 326.652344 " fill-opacity="1" fill-rule="nonzero"/>
  <path fill="#00141e" d="M 56.605469 75.796875 L 76.527344 75.796875 L 76.527344 95.726562 L 56.605469 95.726562 Z M 56.605469 75.796875 " fill-opacity="1" fill-rule="nonzero"/>
  <path fill="#00141e" d="M 152.234375 195.359375 L 172.15625 195.359375 L 172.15625 215.289062 L 152.234375 215.289062 Z M 152.234375 195.359375 " fill-opacity="1" fill-rule="nonzero"/>
  <path fill="#00141e" d="M 96.445312 75.796875 L 116.367188 75.796875 L 116.367188 95.726562 L 96.445312 95.726562 Z M 96.445312 75.796875 " fill-opacity="1" fill-rule="nonzero"/>
  <path fill="#00141e" d="M 152.234375 155.507812 L 182.117188 155.507812 L 182.117188 175.433594 L 152.234375 175.433594 Z M 152.234375 155.507812 " fill-opacity="1" fill-rule="nonzero"/>
  <path fill="#00141e" d="M 275.738281 155.507812 L 317.570312 155.507812 L 317.570312 175.433594 L 275.738281 175.433594 Z M 275.738281 155.507812 " fill-opacity="1" fill-rule="nonzero"/>
  <path fill="#00141e" d="M 61.25 158.167969 L 89.140625 158.167969 L 89.140625 178.097656 L 61.25 178.097656 Z M 61.25 158.167969 " fill-opacity="1" fill-rule="nonzero"/>
  <path fill="#00141e" d="M 61.25 201.34375 L 89.140625 201.34375 L 89.140625 221.273438 L 61.25 221.273438 Z M 61.25 201.34375 " fill-opacity="1" fill-rule="nonzero"/>
  <path fill="#00141e" d="M 61.25 244.523438 L 89.140625 244.523438 L 89.140625 264.449219 L 61.25 264.449219 Z M 61.25 244.523438 " fill-opacity="1" fill-rule="nonzero"/>
</svg>