<svg width="160" height="160" viewBox="0 0 160 160" fill="none" xmlns="http://www.w3.org/2000/svg">
<path d="M15 55H145M11.0688 58.8156L75.9907 143.022C76.4625 143.637 77.0695 144.135 77.7648 144.478C78.46 144.821 79.2248 144.999 80 144.999C80.7752 144.999 81.5401 144.821 82.2353 144.478C82.9306 144.135 83.5376 143.637 84.0094 143.022L148.931 58.8156C149.57 57.9845 149.94 56.9788 149.993 55.9322C150.046 54.8856 149.779 53.8476 149.228 52.9563L127.206 17.4094C126.753 16.6737 126.119 16.0662 125.365 15.6445C124.611 15.2228 123.761 15.001 122.897 15H37.1032C36.239 15.001 35.3895 15.2228 34.6353 15.6445C33.8811 16.0662 33.2471 16.6737 32.7938 17.4094L10.7719 52.9563C10.2208 53.8476 9.95408 54.8856 10.0071 55.9322C10.0601 56.9788 10.4304 57.9845 11.0688 58.8156Z" stroke="white" stroke-width="10" stroke-linecap="round" stroke-linejoin="round"/>
<path d="M125 20L110 55M110 55L80 15L50 55M110 55L80 140L50 55M35 20L50 55" stroke="white" stroke-width="10" stroke-linecap="round" stroke-linejoin="round"/>
</svg>
