<svg width="160" height="160" viewBox="0 0 160 160" fill="none" xmlns="http://www.w3.org/2000/svg">
<path fill-rule="evenodd" clip-rule="evenodd" d="M86.6665 26.6667C86.6665 24.8986 85.9641 23.2029 84.7139 21.9526C83.4636 20.7024 81.7679 20 79.9998 20C78.2317 20 76.536 20.7024 75.2858 21.9526C74.0356 23.2029 73.3332 24.8986 73.3332 26.6667V33.3333C66.2607 33.3333 59.478 36.1428 54.477 41.1438C49.476 46.1448 46.6665 52.9276 46.6665 60C46.6665 67.0724 49.476 73.8552 54.477 78.8562C59.478 83.8572 66.2607 86.6667 73.3332 86.6667V113.333C70.5754 113.334 67.8853 112.479 65.6331 110.888C63.3808 109.297 61.6771 107.046 60.7565 104.447C60.1447 102.81 58.9149 101.479 57.3319 100.741C55.7488 100.002 53.939 99.9135 52.2917 100.495C50.6444 101.077 49.2913 102.282 48.5236 103.852C47.7559 105.421 47.6348 107.229 48.1865 108.887C50.0259 114.086 53.4316 118.588 57.9349 121.772C62.4383 124.956 67.8179 126.666 73.3332 126.667V133.333C73.3332 135.101 74.0356 136.797 75.2858 138.047C76.536 139.298 78.2317 140 79.9998 140C81.7679 140 83.4636 139.298 84.7139 138.047C85.9641 136.797 86.6665 135.101 86.6665 133.333V126.667C93.7389 126.667 100.522 123.857 105.523 118.856C110.524 113.855 113.333 107.072 113.333 100C113.333 92.9276 110.524 86.1448 105.523 81.1438C100.522 76.1428 93.7389 73.3333 86.6665 73.3333V46.6667C89.4243 46.6663 92.1144 47.5206 94.3666 49.112C96.6189 50.7034 98.3225 52.9538 99.2432 55.5533C99.855 57.1897 101.085 58.5205 102.668 59.2595C104.251 59.9984 106.061 60.0865 107.708 59.5046C109.355 58.9227 110.708 57.7175 111.476 56.1482C112.244 54.5789 112.365 52.771 111.813 51.1133C109.974 45.9138 106.568 41.4121 102.065 38.228C97.5614 35.0439 92.1818 33.3339 86.6665 33.3333V26.6667ZM73.3332 46.6667C69.797 46.6667 66.4056 48.0714 63.9051 50.5719C61.4046 53.0724 59.9998 56.4638 59.9998 60C59.9998 63.5362 61.4046 66.9276 63.9051 69.4281C66.4056 71.9286 69.797 73.3333 73.3332 73.3333V46.6667ZM86.6665 86.6667V113.333C90.2027 113.333 93.5941 111.929 96.0946 109.428C98.5951 106.928 99.9998 103.536 99.9998 100C99.9998 96.4638 98.5951 93.0724 96.0946 90.5719C93.5941 88.0714 90.2027 86.6667 86.6665 86.6667Z" fill="white"/>
</svg>
