<svg xmlns="http://www.w3.org/2000/svg" xmlns:xlink="http://www.w3.org/1999/xlink" width="500" zoomAndPan="magnify" viewBox="0 0 375 374.999991" height="500" preserveAspectRatio="xMidYMid meet" version="1.0">
  <path fill="#00abff" d="M 220.375 107.285156 C 220.375 129.417969 208.492188 150.09375 189.289062 161.34375 L 175.484375 169.390625 L 175.484375 133.992188 C 175.484375 133.265625 175.390625 132.621094 175.390625 131.984375 L 175.027344 127.960938 L 176.488281 126.222656 L 169.082031 120.460938 C 166.796875 118.628906 162.957031 116.433594 158.019531 116.433594 C 152.992188 116.433594 149.152344 118.628906 146.863281 120.460938 L 139.550781 126.222656 L 141.015625 127.867188 L 140.648438 131.800781 C 140.558594 132.53125 140.464844 133.265625 140.464844 133.992188 L 140.464844 169.390625 L 126.660156 161.34375 C 107.457031 150.09375 95.570312 129.417969 95.570312 107.285156 C 95.570312 72.898438 123.550781 44.910156 158.019531 44.910156 C 192.398438 44.910156 220.375 72.898438 220.375 107.285156 Z M 220.375 107.285156 " fill-opacity="1" fill-rule="nonzero"/>
  <path fill="#00141e" d="M 264.789062 186.632812 C 257.976562 186.632812 251.75 189.207031 247.035156 193.433594 C 242.320312 189.207031 236.097656 186.632812 229.28125 186.632812 C 222.46875 186.632812 216.242188 189.207031 211.527344 193.433594 C 206.8125 189.207031 200.589844 186.632812 193.773438 186.632812 C 190.664062 186.632812 187.675781 187.167969 184.898438 188.152344 L 184.898438 172.558594 C 196.691406 167.761719 207.1875 159.765625 214.914062 149.558594 C 224.3125 137.140625 229.28125 122.324219 229.28125 106.714844 C 229.28125 67.542969 197.425781 35.675781 158.269531 35.675781 C 119.109375 35.675781 87.253906 67.542969 87.253906 106.714844 C 87.253906 122.324219 92.222656 137.140625 101.621094 149.558594 C 109.347656 159.765625 119.84375 167.761719 131.636719 172.558594 L 131.636719 214.679688 L 130.089844 212.617188 C 122.757812 201.097656 106.867188 198.398438 95.183594 206.191406 C 84.140625 213.558594 80.289062 228.070312 86.222656 239.945312 L 130.367188 327.222656 C 136.421875 339.332031 148.589844 346.859375 162.125 346.859375 L 255.910156 346.859375 C 275.488281 346.859375 291.417969 330.921875 291.417969 311.335938 L 291.417969 213.273438 C 291.417969 198.582031 279.472656 186.632812 264.789062 186.632812 Z M 141.535156 112.652344 C 137.519531 101.347656 145.816406 89.617188 157.3125 88.980469 C 157.316406 88.980469 157.320312 88.980469 157.324219 88.980469 C 167.457031 88.4375 176.023438 96.523438 176.023438 106.714844 C 176.023438 108.769531 175.667969 110.769531 175.003906 112.652344 C 170.425781 108.941406 164.601562 106.714844 158.269531 106.714844 C 151.933594 106.714844 146.109375 108.941406 141.535156 112.652344 Z M 105.007812 106.714844 C 105.007812 77.335938 128.898438 53.433594 158.269531 53.433594 C 187.636719 53.433594 211.527344 77.335938 211.527344 106.714844 C 211.527344 125.890625 201.019531 143.449219 184.898438 152.835938 L 184.898438 133.355469 C 184.898438 132.351562 184.835938 131.363281 184.730469 130.390625 C 190.527344 123.921875 193.773438 115.558594 193.773438 106.714844 C 193.773438 88.496094 179.996094 73.21875 161.921875 71.382812 C 161.914062 71.378906 161.902344 71.378906 161.890625 71.378906 C 140.183594 69.15625 121.285156 86.964844 122.863281 109.261719 C 123.421875 117.15625 126.570312 124.546875 131.808594 130.386719 C 131.699219 131.363281 131.636719 132.351562 131.636719 133.355469 L 131.636719 152.835938 C 115.519531 143.449219 105.007812 125.890625 105.007812 106.714844 Z M 273.664062 311.339844 C 273.664062 321.128906 265.703125 329.097656 255.910156 329.097656 L 162.125 329.097656 C 155.359375 329.097656 149.273438 325.335938 146.246094 319.28125 L 102.101562 232.003906 C 100.160156 228.121094 101.421875 223.375 105.03125 220.96875 C 106.90625 219.71875 109.226562 219.214844 111.40625 219.695312 C 114.464844 220.375 115.253906 222.488281 115.398438 222.625 L 135.019531 248.792969 L 149.390625 248.792969 L 149.390625 133.355469 C 149.390625 128.457031 153.375 124.472656 158.269531 124.472656 C 163.164062 124.472656 167.144531 128.457031 167.144531 133.355469 L 167.144531 239.914062 L 184.898438 239.914062 L 184.898438 213.273438 C 184.898438 208.375 188.882812 204.390625 193.773438 204.390625 C 198.667969 204.390625 202.652344 208.375 202.652344 213.273438 L 202.652344 239.914062 L 220.40625 239.914062 L 220.40625 213.273438 C 220.40625 208.375 224.386719 204.390625 229.28125 204.390625 C 234.175781 204.390625 238.160156 208.375 238.160156 213.273438 L 238.160156 239.914062 L 255.910156 239.914062 L 255.910156 213.273438 C 255.910156 208.375 259.894531 204.390625 264.789062 204.390625 C 269.683594 204.390625 273.664062 208.375 273.664062 213.273438 Z M 273.664062 311.339844 " fill-opacity="1" fill-rule="nonzero"/>
</svg>