<svg
  width="500"
  zoomAndPan="magnify"
  viewBox="0 0 375 374.999991"
  height="500"
  preserveAspectRatio="xMidYMid meet"
  version="1.0"
>
  <path
    fill="#00abff"
    d="M 229.503906 257.4375 L 145.574219 257.4375 L 145.574219 297.664062 L 229.503906 297.664062 Z M 229.503906 257.4375 "
    fill-opacity="1"
    fill-rule="nonzero"
  />
  <path
    fill="#00141e"
    d="M 239.660156 306.878906 L 136.359375 306.878906 L 136.359375 257.4375 C 136.359375 248.667969 132.59375 240.144531 126.03125 234.054688 C 107.265625 216.640625 96.632812 191.96875 96.859375 166.363281 C 97.074219 142.375 106.601562 119.773438 123.683594 102.722656 C 140.765625 85.667969 163.378906 76.183594 187.355469 76.015625 C 187.574219 76.011719 187.796875 76.011719 188.015625 76.011719 C 212.246094 76.011719 235.03125 85.398438 252.238281 102.492188 C 269.601562 119.738281 279.160156 142.71875 279.160156 167.195312 C 279.160156 192.589844 268.449219 217.03125 249.777344 234.25 C 243.347656 240.179688 239.660156 248.589844 239.660156 257.328125 Z M 154.777344 288.453125 L 221.246094 288.453125 L 221.246094 257.328125 C 221.246094 243.460938 227.09375 230.113281 237.292969 220.703125 C 252.195312 206.960938 260.746094 187.457031 260.746094 167.195312 C 260.746094 147.664062 253.113281 129.328125 239.257812 115.566406 C 225.53125 101.929688 207.347656 94.4375 188.011719 94.4375 C 187.835938 94.4375 187.660156 94.4375 187.484375 94.4375 C 148.023438 94.714844 115.636719 127.054688 115.28125 166.527344 C 115.097656 186.960938 123.582031 206.648438 138.558594 220.546875 C 148.867188 230.113281 154.777344 243.558594 154.777344 257.4375 Z M 154.777344 288.453125 "
    fill-opacity="1"
    fill-rule="nonzero"
  />
  <path
    fill="#00141e"
    d="M 230.457031 248.21875 L 145.574219 248.21875 L 145.574219 266.644531 L 230.457031 266.644531 Z M 230.457031 248.21875 "
    fill-opacity="1"
    fill-rule="nonzero"
  />
  <path
    fill="#00141e"
    d="M 188.007812 341.511719 C 169.671875 341.511719 154.753906 326.589844 154.753906 308.246094 L 154.753906 297.667969 L 173.167969 297.667969 L 173.167969 308.246094 C 173.167969 316.429688 179.828125 323.089844 188.007812 323.089844 C 196.191406 323.089844 202.84375 316.429688 202.84375 308.246094 L 202.84375 297.667969 L 221.261719 297.667969 L 221.261719 308.246094 C 221.261719 326.589844 206.34375 341.511719 188.007812 341.511719 Z M 188.007812 341.511719 "
    fill-opacity="1"
    fill-rule="nonzero"
  />
  <path
    fill="#00141e"
    d="M 196.636719 33.261719 L 178.21875 33.261719 L 178.21875 57.65625 L 196.636719 57.65625 Z M 196.636719 33.261719 "
    fill-opacity="1"
    fill-rule="nonzero"
  />
  <path
    fill="#00141e"
    d="M 128.4375 46.558594 L 112.484375 55.769531 L 124.707031 76.949219 L 140.660156 67.738281 Z M 128.4375 46.558594 "
    fill-opacity="1"
    fill-rule="nonzero"
  />
  <path
    fill="#00141e"
    d="M 76.03125 92.207031 L 66.820312 108.167969 L 87.992188 120.394531 L 97.203125 104.433594 Z M 76.03125 92.207031 "
    fill-opacity="1"
    fill-rule="nonzero"
  />
  <path
    fill="#00141e"
    d="M 77.925781 157.988281 L 53.480469 157.988281 L 53.480469 176.414062 L 77.925781 176.414062 Z M 77.925781 157.988281 "
    fill-opacity="1"
    fill-rule="nonzero"
  />
  <path
    fill="#00141e"
    d="M 321.382812 157.988281 L 296.933594 157.988281 L 296.933594 176.414062 L 321.382812 176.414062 Z M 321.382812 157.988281 "
    fill-opacity="1"
    fill-rule="nonzero"
  />
  <path
    fill="#00141e"
    d="M 298.820312 92.222656 L 277.648438 104.449219 L 286.859375 120.40625 L 308.03125 108.179688 Z M 298.820312 92.222656 "
    fill-opacity="1"
    fill-rule="nonzero"
  />
  <path
    fill="#00141e"
    d="M 246.425781 46.5625 L 234.199219 67.738281 L 250.152344 76.953125 L 262.375 55.773438 Z M 246.425781 46.5625 "
    fill-opacity="1"
    fill-rule="nonzero"
  />
  <path
    fill="#00141e"
    d="M 187.601562 203.636719 L 156.054688 185.417969 L 156.054688 148.984375 L 187.601562 130.765625 L 219.148438 148.984375 L 219.148438 185.417969 Z M 174.484375 174.777344 L 187.601562 182.351562 L 200.71875 174.777344 L 200.71875 159.625 L 187.601562 152.046875 L 174.484375 159.625 Z M 174.484375 174.777344 "
    fill-opacity="1"
    fill-rule="nonzero"
  />
  <path
    fill="#00141e"
    d="M 223.746094 135.542969 L 205.289062 146.339844 L 214.59375 162.253906 L 233.046875 151.457031 Z M 223.746094 135.542969 "
    fill-opacity="1"
    fill-rule="nonzero"
  />
  <path
    fill="#00141e"
    d="M 160.632812 172.023438 L 142.179688 182.820312 L 151.484375 198.730469 L 169.933594 187.9375 Z M 160.632812 172.023438 "
    fill-opacity="1"
    fill-rule="nonzero"
  />
  <path
    fill="#00141e"
    d="M 151.410156 135.539062 L 142.109375 151.449219 L 160.5625 162.246094 L 169.867188 146.335938 Z M 151.410156 135.539062 "
    fill-opacity="1"
    fill-rule="nonzero"
  />
  <path
    fill="#00141e"
    d="M 214.519531 172.160156 L 205.21875 188.070312 L 223.671875 198.867188 L 232.976562 182.957031 Z M 214.519531 172.160156 "
    fill-opacity="1"
    fill-rule="nonzero"
  />
  <path
    fill="#00141e"
    d="M 196.753906 119.976562 L 178.324219 120.082031 L 178.445312 141.46875 L 196.871094 141.363281 Z M 196.753906 119.976562 "
    fill-opacity="1"
    fill-rule="nonzero"
  />
  <path
    fill="#00141e"
    d="M 196.820312 192.933594 L 178.394531 193.039062 L 178.515625 214.425781 L 196.941406 214.320312 Z M 196.820312 192.933594 "
    fill-opacity="1"
    fill-rule="nonzero"
  />
</svg>
