<svg
  width="500"
  zoomAndPan="magnify"
  viewBox="0 0 375 374.999991"
  height="500"
>
  <defs>
    <clipPath id="198aceba12">
      <path
        d="M 29.035156 24.878906 L 345.835938 24.878906 L 345.835938 341.796875 L 29.035156 341.796875 Z M 29.035156 24.878906 "
        clip-rule="nonzero"
      />
    </clipPath>
    <clipPath id="6bea0ccb0b">
      <path
        d="M 29.035156 155 L 85 155 L 85 212 L 29.035156 212 Z M 29.035156 155 "
        clip-rule="nonzero"
      />
    </clipPath>
    <clipPath id="ca63622e55">
      <path
        d="M 140 24.878906 L 197 24.878906 L 197 81 L 140 81 Z M 140 24.878906 "
        clip-rule="nonzero"
      />
    </clipPath>
  </defs>
  <path
    fill="#00abff"
    d="M 81.542969 38.21875 L 42.375 77.40625 L 108.378906 143.433594 L 147.550781 104.25 Z M 81.542969 38.21875 "
    fill-opacity="1"
    fill-rule="nonzero"
  />
  <path
    fill="#00abff"
    d="M 81.542969 51.152344 L 55.304688 77.40625 L 108.378906 130.5 L 134.621094 104.25 Z M 81.542969 51.152344 "
    fill-opacity="1"
    fill-rule="nonzero"
  />
  <g clip-path="url(#198aceba12)">
    <path
      fill="#00141e"
      d="M 81.539062 24.921875 L 29.070312 77.402344 L 293.375 341.800781 L 345.839844 289.3125 Z M 55.304688 77.402344 L 81.539062 51.160156 L 134.601562 104.246094 L 108.367188 130.488281 Z M 121.484375 143.609375 L 147.71875 117.363281 L 319.609375 289.3125 L 293.375 315.554688 Z M 121.484375 143.609375 "
      fill-opacity="1"
      fill-rule="nonzero"
    />
  </g>
  <g clip-path="url(#6bea0ccb0b)">
    <path
      fill="#00141e"
      d="M 47.585938 211.066406 L 66.132812 211.066406 L 66.132812 192.511719 L 84.683594 192.511719 L 84.683594 173.953125 L 66.132812 173.953125 L 66.132812 155.398438 L 47.585938 155.398438 L 47.585938 173.953125 L 29.035156 173.953125 L 29.035156 192.511719 L 47.585938 192.511719 Z M 47.585938 211.066406 "
      fill-opacity="1"
      fill-rule="nonzero"
    />
  </g>
  <path
    fill="#00141e"
    d="M 270.800781 118.28125 L 270.800781 99.726562 L 289.351562 99.726562 L 289.351562 81.171875 L 270.800781 81.171875 L 270.800781 62.613281 L 252.25 62.613281 L 252.25 81.171875 L 233.699219 81.171875 L 233.699219 99.726562 L 252.25 99.726562 L 252.25 118.28125 Z M 270.800781 118.28125 "
    fill-opacity="1"
    fill-rule="nonzero"
  />
  <g clip-path="url(#ca63622e55)">
    <path
      fill="#00141e"
      d="M 140.949219 52.71875 C 140.949219 68.066406 153.429688 80.554688 168.773438 80.554688 C 184.117188 80.554688 196.597656 68.066406 196.597656 52.71875 C 196.597656 37.371094 184.117188 24.882812 168.773438 24.882812 C 153.429688 24.882812 140.949219 37.371094 140.949219 52.71875 Z M 178.046875 52.71875 C 178.046875 57.835938 173.886719 61.996094 168.773438 61.996094 C 163.660156 61.996094 159.5 57.835938 159.5 52.71875 C 159.5 47.601562 163.660156 43.441406 168.773438 43.441406 C 173.886719 43.441406 178.046875 47.601562 178.046875 52.71875 Z M 178.046875 52.71875 "
      fill-opacity="1"
      fill-rule="nonzero"
    />
  </g>
  <path
    fill="#00141e"
    d="M 215.144531 118.277344 L 233.699219 118.277344 L 233.699219 136.835938 L 215.144531 136.835938 Z M 215.144531 118.277344 "
    fill-opacity="1"
    fill-rule="nonzero"
  />
  <path
    fill="#00141e"
    d="M 103.859375 192.519531 L 122.40625 192.519531 L 122.40625 211.078125 L 103.859375 211.078125 Z M 103.859375 192.519531 "
    fill-opacity="1"
    fill-rule="nonzero"
  />
</svg>
