<svg
  xmlns="http://www.w3.org/2000/svg"
  xmlns:xlink="http://www.w3.org/1999/xlink"
  width="500"
  zoomAndPan="magnify"
  viewBox="0 0 375 374.999991"
  height="500"
  preserveAspectRatio="xMidYMid meet"
  version="1.0"
>
  <path
    fill="#00abff"
    d="M 252.816406 37.300781 L 120.714844 37.300781 L 120.714844 209.324219 L 252.816406 209.324219 Z M 252.816406 37.300781 "
    fill-opacity="1"
    fill-rule="nonzero"
  />
  <path
    fill="#00141e"
    d="M 343.03125 291.292969 L 343.03125 75.410156 L 261.804688 75.410156 L 261.804688 27.671875 L 113.011719 27.671875 L 113.011719 75.410156 L 31.785156 75.410156 L 31.785156 291.292969 L 160.054688 291.292969 L 160.054688 320.785156 L 113.851562 320.785156 L 113.851562 339.027344 L 260.964844 339.027344 L 260.964844 320.785156 L 214.765625 320.785156 L 214.765625 291.292969 Z M 131.25 45.914062 L 243.566406 45.914062 L 243.566406 200.074219 L 131.25 200.074219 Z M 113.011719 93.652344 L 113.011719 218.316406 L 261.804688 218.316406 L 261.804688 93.652344 L 324.796875 93.652344 L 324.796875 236.5625 L 50.023438 236.5625 L 50.023438 93.652344 Z M 50.023438 273.046875 L 50.023438 254.804688 L 324.796875 254.804688 L 324.796875 273.046875 Z M 196.527344 320.785156 L 178.289062 320.785156 L 178.289062 291.292969 L 196.527344 291.292969 Z M 196.527344 320.785156 "
    fill-opacity="1"
    fill-rule="nonzero"
  />
  <path
    fill="#00141e"
    d="M 152.304688 62.433594 L 224.492188 62.433594 L 224.492188 80.792969 L 152.304688 80.792969 Z M 152.304688 62.433594 "
    fill-opacity="1"
    fill-rule="nonzero"
  />
  <path
    fill="#00141e"
    d="M 152.304688 99.144531 L 224.492188 99.144531 L 224.492188 117.503906 L 152.304688 117.503906 Z M 152.304688 99.144531 "
    fill-opacity="1"
    fill-rule="nonzero"
  />
  <path
    fill="#00141e"
    d="M 182.777344 155 L 175.601562 147.824219 L 162.628906 160.804688 L 182.777344 180.964844 L 214.140625 149.585938 L 201.167969 136.605469 Z M 182.777344 155 "
    fill-opacity="1"
    fill-rule="nonzero"
  />
</svg>
