<svg width="160" height="160" viewBox="0 0 160 160" fill="none" xmlns="http://www.w3.org/2000/svg">
<path d="M75 86.6668V146.667H48.3333C45.488 146.667 42.6706 146.106 40.0419 145.018C37.4131 143.929 35.0246 142.333 33.0127 140.321C31.0007 138.309 29.4048 135.92 28.3159 133.292C27.2271 130.663 26.6667 127.845 26.6667 125V86.6668H75ZM133.333 86.6668V125C133.333 127.845 132.773 130.663 131.684 133.292C130.595 135.92 128.999 138.309 126.987 140.321C124.975 142.333 122.587 143.929 119.958 145.018C117.329 146.106 114.512 146.667 111.667 146.667H85V86.6668H133.333ZM96.6667 13.3334C100.554 13.3326 104.371 14.3779 107.715 16.3596C111.06 18.3414 113.81 21.1865 115.677 24.5968C117.543 28.007 118.458 31.8567 118.325 35.7422C118.192 39.6276 117.016 43.4056 114.92 46.6801L131.667 46.6668C136.267 46.6668 140 49.7734 140 53.6134V73.0534C140 76.8934 136.267 80.0001 131.667 80.0001L85 79.9934V46.6668H75V79.9934L28.3333 80.0001C23.7333 80.0001 20 76.8934 20 73.0534V53.6134C20 49.7734 23.7333 46.6668 28.3333 46.6668L45.08 46.6801C42.1055 42.0352 41.0145 36.4307 42.0294 31.0091C43.0443 25.5876 46.0887 20.7572 50.542 17.5027C54.9952 14.2482 60.522 12.8147 65.9957 13.4943C71.4694 14.1738 76.4778 16.9154 80 21.1601C82.0297 18.7081 84.5763 16.7349 87.4576 15.3819C90.3388 14.0289 93.4835 13.3294 96.6667 13.3334ZM63.3333 23.3334C60.3232 23.3348 57.4301 24.4995 55.2588 26.5842C53.0874 28.6689 51.8058 31.5121 51.6818 34.5197C51.5579 37.5272 52.6012 40.4663 54.5936 42.7226C56.5861 44.9789 59.3735 46.3777 62.3733 46.6268L63.3333 46.6668H75V35.0001L74.96 34.0401C74.7191 31.1221 73.3898 28.4014 71.2359 26.418C69.0821 24.4346 66.2613 23.3335 63.3333 23.3334ZM96.6667 23.3334C93.5725 23.3334 90.605 24.5626 88.4171 26.7505C86.2292 28.9384 85 31.9059 85 35.0001V46.6668H96.6667C99.7609 46.6668 102.728 45.4376 104.916 43.2497C107.104 41.0618 108.333 38.0943 108.333 35.0001C108.333 31.9059 107.104 28.9384 104.916 26.7505C102.728 24.5626 99.7609 23.3334 96.6667 23.3334Z" fill="white"/>
</svg>
