<svg
  width="500"
  zoomAndPan="magnify"
  viewBox="0 0 375 374.999991"
  height="500"
>
  <path
    fill="#00abff"
    d="M 187.429688 50.429688 L 202.234375 80.4375 L 235.339844 85.25 L 211.382812 108.609375 L 217.039062 141.589844 L 187.429688 126.019531 L 157.820312 141.589844 L 163.472656 108.609375 L 139.519531 85.25 L 172.625 80.4375 Z M 187.429688 50.429688 "
    fill-opacity="1"
    fill-rule="nonzero"
  />
  <path
    fill="#00141e"
    d="M 88.398438 267.347656 C 66.160156 267.347656 48.070312 249.25 48.070312 227.003906 C 48.070312 204.757812 66.160156 186.660156 88.398438 186.660156 C 110.636719 186.660156 128.726562 204.757812 128.726562 227.003906 C 128.726562 249.25 110.636719 267.347656 88.398438 267.347656 Z M 88.398438 204.804688 C 76.164062 204.804688 66.210938 214.761719 66.210938 227.003906 C 66.210938 239.242188 76.164062 249.199219 88.398438 249.199219 C 100.632812 249.199219 110.589844 239.242188 110.589844 227.003906 C 110.589844 214.765625 100.632812 204.804688 88.398438 204.804688 Z M 88.398438 204.804688 "
    fill-opacity="1"
    fill-rule="nonzero"
  />
  <g clip-path="url(#bb43fd2328)">
    <path
      fill="#00141e"
      d="M 146.980469 345.039062 L 29.820312 345.039062 L 29.820312 307.804688 C 29.820312 275.492188 56.097656 249.203125 88.402344 249.203125 C 120.703125 249.203125 146.980469 275.492188 146.980469 307.804688 Z M 47.960938 326.890625 L 128.84375 326.890625 L 128.84375 307.804688 C 128.84375 285.496094 110.699219 267.347656 88.402344 267.347656 C 66.101562 267.347656 47.960938 285.496094 47.960938 307.804688 Z M 47.960938 326.890625 "
      fill-opacity="1"
      fill-rule="nonzero"
    />
  </g>
  <path
    fill="#00141e"
    d="M 187.421875 248.839844 C 165.183594 248.839844 147.089844 230.742188 147.089844 208.496094 C 147.089844 186.25 165.183594 168.152344 187.421875 168.152344 C 209.65625 168.152344 227.75 186.25 227.75 208.496094 C 227.75 230.738281 209.65625 248.839844 187.421875 248.839844 Z M 187.421875 186.300781 C 175.183594 186.300781 165.230469 196.257812 165.230469 208.496094 C 165.230469 220.734375 175.183594 230.695312 187.421875 230.695312 C 199.65625 230.695312 209.609375 220.734375 209.609375 208.496094 C 209.609375 196.253906 199.65625 186.300781 187.421875 186.300781 Z M 187.421875 186.300781 "
    fill-opacity="1"
    fill-rule="nonzero"
  />
  <g clip-path="url(#846313b2ab)">
    <path
      fill="#00141e"
      d="M 246 345.042969 L 128.839844 345.042969 L 128.839844 289.296875 C 128.839844 256.984375 155.121094 230.695312 187.421875 230.695312 C 219.722656 230.695312 246.003906 256.984375 246.003906 289.296875 Z M 146.980469 326.894531 L 227.863281 326.894531 L 227.863281 289.296875 C 227.863281 266.988281 209.722656 248.839844 187.421875 248.839844 C 165.121094 248.839844 146.980469 266.988281 146.980469 289.296875 Z M 146.980469 326.894531 "
      fill-opacity="1"
      fill-rule="nonzero"
    />
  </g>
  <path
    fill="#00141e"
    d="M 286.441406 267.347656 C 264.203125 267.347656 246.113281 249.25 246.113281 227.003906 C 246.113281 204.757812 264.203125 186.660156 286.441406 186.660156 C 308.679688 186.660156 326.769531 204.757812 326.769531 227.003906 C 326.769531 249.25 308.679688 267.347656 286.441406 267.347656 Z M 286.441406 204.804688 C 274.207031 204.804688 264.25 214.761719 264.25 227.003906 C 264.25 239.242188 274.207031 249.199219 286.441406 249.199219 C 298.675781 249.199219 308.628906 239.242188 308.628906 227.003906 C 308.628906 214.765625 298.675781 204.804688 286.441406 204.804688 Z M 286.441406 204.804688 "
    fill-opacity="1"
    fill-rule="nonzero"
  />
  <g clip-path="url(#b6ced8409f)">
    <path
      fill="#00141e"
      d="M 345.023438 345.039062 L 227.863281 345.039062 L 227.863281 307.804688 C 227.863281 275.492188 254.140625 249.203125 286.441406 249.203125 C 318.746094 249.203125 345.023438 275.492188 345.023438 307.804688 Z M 246 326.890625 L 326.882812 326.890625 L 326.882812 307.804688 C 326.882812 285.496094 308.742188 267.347656 286.441406 267.347656 C 264.144531 267.347656 246 285.496094 246 307.804688 Z M 246 326.890625 "
      fill-opacity="1"
      fill-rule="nonzero"
    />
  </g>
  <g clip-path="url(#59363b4e5a)">
    <path
      fill="#00141e"
      d="M 229.074219 158.167969 L 187.417969 136.261719 L 145.761719 158.167969 L 153.71875 111.769531 L 120.019531 78.90625 L 166.589844 72.136719 L 187.417969 29.921875 L 208.246094 72.136719 L 254.816406 78.90625 L 221.117188 111.769531 Z M 187.417969 115.761719 L 204.980469 124.996094 L 201.628906 105.433594 L 215.835938 91.578125 L 196.199219 88.722656 L 187.417969 70.921875 L 178.636719 88.722656 L 159 91.578125 L 173.207031 105.433594 L 169.855469 124.996094 Z M 187.417969 115.761719 "
      fill-opacity="1"
      fill-rule="nonzero"
    />
  </g>
</svg>
