<svg version="1.2" viewBox="0 0 41.25 41.250001" height="41.250001pt" width="41.25pt" xmlns:xlink="http://www.w3.org/1999/xlink" xmlns="http://www.w3.org/2000/svg">
<defs>
<clipPath id="clip1">
  <path d="M 5 19 L 35 19 L 35 39.6875 L 5 39.6875 Z M 5 19"></path>
</clipPath>
<clipPath id="clip2">
  <path d="M 0.648438 1 L 39.6875 1 L 39.6875 22 L 0.648438 22 Z M 0.648438 1"></path>
</clipPath>
<clipPath id="clip3">
  <path d="M 27 0.648438 L 39.6875 0.648438 L 39.6875 13 L 27 13 Z M 27 0.648438"></path>
</clipPath>
</defs>
<g id="surface1">
<path d="M 24.207031 22.1875 C 24.207031 19.960938 22.394531 18.148438 20.167969 18.148438 C 17.941406 18.148438 16.128906 19.960938 16.128906 22.1875 C 16.128906 24.414062 17.941406 26.226562 20.167969 26.226562 C 22.394531 26.226562 24.207031 24.414062 24.207031 22.1875" style="stroke:none;fill-rule:nonzero;fill:rgb(11.759949%,48.629761%,94.119263%);fill-opacity:1;"></path>
<path d="M 20.101562 27.570312 L 20.003906 27.566406 L 19.519531 33.375 L 20.167969 34.023438 L 20.816406 33.375 L 20.332031 27.574219 L 20.167969 27.574219 C 20.148438 27.574219 20.125 27.570312 20.101562 27.570312" style="stroke:none;fill-rule:nonzero;fill:rgb(11.759949%,48.629761%,94.119263%);fill-opacity:1;"></path>
<g clip-rule="nonzero" clip-path="url(#clip1)">
<path d="M 33.746094 19.496094 C 33.421875 19.496094 33.105469 19.625 32.875 19.855469 L 27.617188 25.113281 C 26.492188 26.242188 25.003906 26.984375 23.429688 27.210938 L 21.675781 27.457031 L 22.210938 33.886719 L 20.167969 35.929688 L 18.125 33.886719 L 18.660156 27.460938 L 16.90625 27.210938 C 15.332031 26.984375 13.84375 26.242188 12.71875 25.113281 L 7.460938 19.855469 C 7.230469 19.625 6.914062 19.496094 6.589844 19.496094 C 5.914062 19.496094 5.359375 20.046875 5.359375 20.726562 C 5.359375 21.050781 5.492188 21.367188 5.71875 21.597656 L 15.457031 31.332031 L 15.457031 39.6875 L 24.878906 39.6875 L 24.878906 31.332031 L 34.617188 21.597656 C 34.84375 21.367188 34.976562 21.050781 34.976562 20.726562 C 34.976562 20.046875 34.425781 19.496094 33.746094 19.496094" style="stroke:none;fill-rule:nonzero;fill:rgb(11.759949%,48.629761%,94.119263%);fill-opacity:1;"></path>
</g>
<g clip-rule="nonzero" clip-path="url(#clip2)">
<path d="M 27.375 17.277344 L 26.421875 16.328125 L 27.292969 15.457031 L 13.042969 15.457031 L 13.914062 16.328125 L 12.960938 17.277344 L 10.464844 14.785156 L 12.960938 12.289062 L 13.914062 13.238281 L 13.042969 14.109375 L 27.292969 14.109375 L 26.421875 13.238281 L 27.375 12.289062 L 29.871094 14.785156 Z M 8.15625 10.855469 L 6.828125 10.632812 C 7.535156 6.40625 11.164062 3.339844 15.457031 3.339844 L 15.457031 4.6875 C 11.824219 4.6875 8.753906 7.28125 8.15625 10.855469 Z M 16.914062 3.460938 C 17.410156 3.542969 17.902344 3.671875 18.371094 3.835938 L 17.925781 5.109375 C 17.527344 4.964844 17.109375 4.859375 16.691406 4.789062 Z M 35.648438 13.4375 C 33.421875 13.4375 31.609375 15.25 31.609375 17.476562 L 30.265625 17.476562 C 30.265625 14.550781 32.613281 12.164062 35.527344 12.097656 C 34.890625 8.640625 31.832031 6.03125 28.246094 6.03125 C 27.046875 6.03125 25.894531 6.316406 24.824219 6.875 L 24.28125 7.160156 L 23.945312 6.644531 C 22.078125 3.730469 18.902344 1.996094 15.457031 1.996094 C 9.886719 1.996094 5.359375 6.523438 5.359375 12.089844 C 5.359375 12.105469 5.359375 12.121094 5.359375 12.136719 C 6.859375 12.324219 8.230469 13.140625 9.105469 14.398438 L 8 15.167969 C 7.246094 14.085938 6.003906 13.4375 4.6875 13.4375 C 2.460938 13.4375 0.648438 15.25 0.648438 17.476562 C 0.648438 19.515625 2.171875 21.203125 4.132812 21.472656 C 4.0625 21.234375 4.015625 20.984375 4.015625 20.726562 C 4.015625 19.304688 5.171875 18.148438 6.589844 18.148438 C 7.28125 18.148438 7.925781 18.417969 8.414062 18.902344 L 11.023438 21.515625 L 14.832031 21.515625 C 15.164062 18.863281 17.425781 16.804688 20.167969 16.804688 C 22.910156 16.804688 25.171875 18.863281 25.503906 21.515625 L 29.3125 21.515625 L 31.925781 18.902344 C 32.410156 18.417969 33.058594 18.148438 33.746094 18.148438 C 35.164062 18.148438 36.324219 19.304688 36.324219 20.726562 C 36.324219 20.984375 36.273438 21.234375 36.203125 21.472656 C 38.164062 21.203125 39.6875 19.515625 39.6875 17.476562 C 39.6875 15.25 37.875 13.4375 35.648438 13.4375" style="stroke:none;fill-rule:nonzero;fill:rgb(11.759949%,48.629761%,94.119263%);fill-opacity:1;"></path>
</g>
<g clip-rule="nonzero" clip-path="url(#clip3)">
<path d="M 38.210938 6.144531 L 38.101562 5.792969 C 38.007812 5.476562 37.875 5.167969 37.71875 4.867188 L 37.546875 4.539062 L 38.304688 3.207031 L 37.128906 2.03125 L 35.796875 2.792969 L 35.46875 2.617188 C 35.167969 2.460938 34.859375 2.328125 34.546875 2.234375 L 34.191406 2.125 L 33.789062 0.648438 L 32.125 0.648438 L 31.722656 2.125 L 31.371094 2.234375 C 31.054688 2.328125 30.746094 2.460938 30.445312 2.617188 L 30.117188 2.792969 L 28.785156 2.03125 L 27.609375 3.207031 L 28.371094 4.539062 L 28.292969 4.691406 C 28.8125 4.691406 29.324219 4.742188 29.824219 4.835938 C 30.585938 3.894531 31.722656 3.339844 32.957031 3.339844 C 35.183594 3.339844 36.996094 5.152344 36.996094 7.378906 C 36.996094 8.253906 36.703125 9.085938 36.183594 9.78125 C 36.542969 10.546875 36.785156 11.375 36.902344 12.242188 C 37.089844 12.289062 37.273438 12.34375 37.449219 12.40625 L 38.304688 11.550781 L 37.546875 10.21875 L 37.71875 9.890625 C 37.875 9.589844 38.007812 9.28125 38.101562 8.96875 L 38.210938 8.613281 L 39.6875 8.210938 L 39.6875 6.546875 L 38.210938 6.144531" style="stroke:none;fill-rule:nonzero;fill:rgb(11.759949%,48.629761%,94.119263%);fill-opacity:1;"></path>
</g>
<path d="M 35.417969 8.453125 C 35.566406 8.117188 35.648438 7.753906 35.648438 7.378906 C 35.648438 5.894531 34.441406 4.6875 32.957031 4.6875 C 32.347656 4.6875 31.773438 4.890625 31.308594 5.253906 C 32.976562 5.882812 34.40625 7.011719 35.417969 8.453125" style="stroke:none;fill-rule:nonzero;fill:rgb(11.759949%,48.629761%,94.119263%);fill-opacity:1;"></path>
</g>
</svg>
