<svg width="56" height="40" viewBox="0 0 56 40" fill="none" xmlns="http://www.w3.org/2000/svg">
<path d="M56 25C56 33.2875 49.2875 40 41 40H40C37.7875 40 36 38.2125 36 36C36 33.7875 37.7875 32 40 32H41C44.8625 32 48 28.8625 48 25V24H40C35.5875 24 32 20.4125 32 16V8C32 3.5875 35.5875 0 40 0H48C52.4125 0 56 3.5875 56 8V25ZM24 25C24 33.2875 17.2875 40 9 40H8C5.7875 40 4 38.2125 4 36C4 33.7875 5.7875 32 8 32H9C12.8625 32 16 28.8625 16 25V24H8C3.5875 24 0 20.4125 0 16V8C0 3.5875 3.5875 0 8 0H16C20.4125 0 24 3.5875 24 8V25Z" fill="#01ABFF"/>
</svg>
