<svg
  width="500"
  zoomAndPan="magnify"
  viewBox="0 0 375 374.999991"
  height="500"
>
  <path
    fill="#00abff"
    d="M 206.359375 204.363281 L 206.359375 341.109375 L 343.105469 341.109375 L 343.105469 204.363281 Z M 245.429688 273.796875 C 245.429688 258.011719 258.261719 245.179688 274.046875 245.179688 C 289.824219 245.179688 302.664062 258.011719 302.664062 273.796875 C 302.664062 289.570312 289.824219 302.40625 274.046875 302.40625 C 258.261719 302.40625 245.429688 289.570312 245.429688 273.796875 Z M 245.429688 273.796875 "
    fill-opacity="1"
    fill-rule="nonzero"
  />
  <path
    fill="#00141e"
    d="M 310.945312 24.609375 L 24.644531 24.609375 L 24.644531 310.910156 L 177.339844 310.910156 L 177.339844 177.304688 L 310.945312 177.304688 Z M 43.734375 43.695312 L 158.253906 43.695312 L 158.253906 158.214844 L 43.734375 158.214844 Z M 43.734375 291.820312 L 43.734375 177.304688 L 158.253906 177.304688 L 158.253906 291.820312 Z M 291.859375 158.214844 L 177.339844 158.214844 L 177.339844 43.695312 L 291.859375 43.695312 Z M 291.859375 158.214844 "
    fill-opacity="1"
    fill-rule="nonzero"
  />
  <path
    fill="#00141e"
    d="M 197.699219 197.664062 L 197.699219 350.355469 L 350.390625 350.355469 L 350.390625 197.664062 Z M 331.304688 331.269531 L 216.785156 331.269531 L 216.785156 216.75 L 331.304688 216.75 Z M 331.304688 331.269531 "
    fill-opacity="1"
    fill-rule="nonzero"
  />
  <path
    fill="#00141e"
    d="M 100.996094 62.785156 C 79.949219 62.785156 62.824219 79.910156 62.824219 100.960938 C 62.824219 122.007812 79.949219 139.132812 100.996094 139.132812 C 122.046875 139.132812 139.171875 122.007812 139.171875 100.960938 C 139.171875 79.910156 122.046875 62.785156 100.996094 62.785156 Z M 100.996094 120.046875 C 90.472656 120.046875 81.910156 111.484375 81.910156 100.960938 C 81.910156 90.4375 90.472656 81.875 100.996094 81.875 C 111.519531 81.875 120.082031 90.4375 120.082031 100.960938 C 120.082031 111.484375 111.519531 120.046875 100.996094 120.046875 Z M 100.996094 120.046875 "
    fill-opacity="1"
    fill-rule="nonzero"
  />
  <path
    fill="#00141e"
    d="M 234.589844 139.132812 C 255.640625 139.132812 272.765625 122.007812 272.765625 100.960938 C 272.765625 79.910156 255.640625 62.785156 234.589844 62.785156 C 213.542969 62.785156 196.417969 79.910156 196.417969 100.960938 C 196.417969 122.007812 213.542969 139.132812 234.589844 139.132812 Z M 234.589844 81.875 C 245.113281 81.875 253.675781 90.4375 253.675781 100.960938 C 253.675781 111.484375 245.113281 120.046875 234.589844 120.046875 C 224.066406 120.046875 215.503906 111.484375 215.503906 100.960938 C 215.503906 90.4375 224.066406 81.875 234.589844 81.875 Z M 234.589844 81.875 "
    fill-opacity="1"
    fill-rule="nonzero"
  />
  <path
    fill="#00141e"
    d="M 100.996094 196.382812 C 79.949219 196.382812 62.824219 213.503906 62.824219 234.554688 C 62.824219 255.601562 79.949219 272.726562 100.996094 272.726562 C 122.046875 272.726562 139.171875 255.601562 139.171875 234.554688 C 139.171875 213.503906 122.046875 196.382812 100.996094 196.382812 Z M 100.996094 253.640625 C 90.472656 253.640625 81.910156 245.078125 81.910156 234.554688 C 81.910156 224.03125 90.472656 215.46875 100.996094 215.46875 C 111.519531 215.46875 120.082031 224.03125 120.082031 234.554688 C 120.082031 245.078125 111.519531 253.640625 100.996094 253.640625 Z M 100.996094 253.640625 "
    fill-opacity="1"
    fill-rule="nonzero"
  />
  <path
    fill="#00141e"
    d="M 274.050781 312.1875 C 295.097656 312.1875 312.222656 295.0625 312.222656 274.011719 C 312.222656 252.964844 295.097656 235.839844 274.050781 235.839844 C 253 235.839844 235.875 252.964844 235.875 274.011719 C 235.875 295.0625 253 312.1875 274.050781 312.1875 Z M 274.050781 254.925781 C 284.574219 254.925781 293.136719 263.488281 293.136719 274.011719 C 293.136719 284.539062 284.574219 293.101562 274.050781 293.101562 C 263.527344 293.101562 254.964844 284.539062 254.964844 274.011719 C 254.964844 263.488281 263.527344 254.925781 274.050781 254.925781 Z M 274.050781 254.925781 "
    fill-opacity="1"
    fill-rule="nonzero"
  />
</svg>
