<svg xmlns="http://www.w3.org/2000/svg" xmlns:xlink="http://www.w3.org/1999/xlink" width="500" zoomAndPan="magnify" viewBox="0 0 375 374.999991" height="500" preserveAspectRatio="xMidYMid meet" version="1.0">
  <path fill="#00abff" d="M 181.195312 291.929688 C 158.421875 291.929688 136.289062 282.511719 120.464844 266.144531 L 113.238281 258.738281 L 181.378906 207.539062 L 181.378906 122.234375 L 191.714844 123.511719 C 210.375 125.890625 227.386719 134.210938 240.832031 147.652344 C 256.929688 163.742188 265.710938 184.863281 265.710938 207.355469 C 265.710938 229.847656 256.835938 250.96875 240.832031 266.96875 C 224.917969 282.96875 203.695312 291.839844 181.195312 291.839844 Z M 181.195312 291.929688 " fill-opacity="1" fill-rule="nonzero"/>
  <path fill="#00141e" d="M 181.199219 342.859375 C 145.074219 342.859375 111.140625 328.78125 85.621094 303.269531 C 60.101562 277.761719 46.015625 243.839844 46.015625 207.726562 C 46.015625 171.609375 60.101562 137.6875 85.621094 112.179688 C 111.140625 86.667969 145.074219 72.589844 181.199219 72.589844 C 217.328125 72.589844 251.261719 86.667969 276.78125 112.179688 C 302.296875 137.6875 316.382812 171.609375 316.382812 207.726562 C 316.382812 243.839844 302.296875 277.761719 276.78125 303.269531 C 251.261719 328.78125 217.328125 342.859375 181.199219 342.859375 Z M 181.199219 91.242188 C 150.101562 91.242188 120.835938 103.308594 98.792969 125.34375 C 76.75 147.378906 64.675781 176.546875 64.675781 207.726562 C 64.675781 238.902344 76.75 268.070312 98.792969 290.105469 C 120.835938 312.140625 150.011719 324.207031 181.199219 324.207031 C 212.390625 324.207031 241.566406 312.140625 263.609375 290.105469 C 285.652344 268.070312 297.722656 238.902344 297.722656 207.726562 C 297.722656 176.546875 285.652344 147.378906 263.609375 125.34375 C 241.566406 103.308594 212.390625 91.242188 181.199219 91.242188 Z M 181.199219 91.242188 " fill-opacity="1" fill-rule="nonzero"/>
  <path fill="#00141e" d="M 181.195312 301.71875 C 166.742188 301.71875 152.199219 298.335938 139.210938 291.84375 C 126.222656 285.355469 114.792969 275.84375 106.011719 264.234375 L 100.429688 256.734375 L 171.863281 202.972656 L 171.863281 113.554688 L 181.195312 113.554688 C 206.164062 113.554688 229.761719 123.335938 247.597656 141.257812 C 265.429688 159.085938 275.308594 182.675781 275.308594 207.636719 C 275.308594 232.597656 265.523438 256.1875 247.597656 274.015625 C 229.761719 291.84375 206.164062 301.71875 181.195312 301.71875 Z M 127.046875 260.117188 C 141.132812 274.566406 160.796875 283.066406 181.195312 283.066406 C 201.589844 283.066406 220.066406 275.203125 234.332031 260.851562 C 248.601562 246.585938 256.558594 227.660156 256.558594 207.730469 C 256.558594 187.796875 248.695312 168.871094 234.332031 154.605469 C 222.261719 142.539062 206.984375 135.039062 190.523438 133.03125 L 190.523438 212.484375 L 127.046875 260.210938 Z M 127.046875 260.117188 " fill-opacity="1" fill-rule="nonzero"/>
  <path fill="#00141e" d="M 291.589844 84.113281 L 264.617188 111.070312 L 277.8125 124.261719 L 304.78125 97.300781 Z M 291.589844 84.113281 " fill-opacity="1" fill-rule="nonzero"/>
  <path fill="#00141e" d="M 70.660156 84.167969 L 57.46875 97.359375 L 84.4375 124.316406 L 97.628906 111.128906 Z M 70.660156 84.167969 " fill-opacity="1" fill-rule="nonzero"/>
  <path fill="#00141e" d="M 239.464844 32 L 122.941406 32 L 122.941406 50.652344 L 239.464844 50.652344 Z M 239.464844 32 " fill-opacity="1" fill-rule="nonzero"/>
  <path fill="#00141e" d="M 159.160156 41.410156 L 140.5 41.410156 L 140.5 81.914062 L 159.160156 81.914062 Z M 159.160156 41.410156 " fill-opacity="1" fill-rule="nonzero"/>
  <path fill="#00141e" d="M 222.71875 41.410156 L 204.058594 41.410156 L 204.058594 81.914062 L 222.71875 81.914062 Z M 222.71875 41.410156 " fill-opacity="1" fill-rule="nonzero"/>
</svg>