<svg
  xmlns="http://www.w3.org/2000/svg"
  xmlns:xlink="http://www.w3.org/1999/xlink"
  width="500"
  zoomAndPan="magnify"
  viewBox="0 0 375 374.999991"
  height="500"
  preserveAspectRatio="xMidYMid meet"
  version="1.0"
>
  <path
    fill="#00141e"
    d="M 338.699219 267.433594 L 103.183594 267.433594 L 103.183594 32 L 338.699219 32 Z M 121.75 248.875 L 320.132812 248.875 L 320.132812 50.558594 L 121.75 50.558594 Z M 121.75 248.875 "
    fill-opacity="1"
    fill-rule="nonzero"
  />
  <path
    fill="#00141e"
    d="M 297.996094 146.652344 L 279.425781 146.652344 L 279.425781 91.058594 L 223.816406 91.058594 L 223.816406 72.5 L 297.996094 72.5 Z M 297.996094 146.652344 "
    fill-opacity="1"
    fill-rule="nonzero"
  />
  <path
    fill="#00141e"
    d="M 282.140625 75.359375 L 205.113281 152.359375 L 218.242188 165.484375 L 295.269531 88.484375 Z M 282.140625 75.359375 "
    fill-opacity="1"
    fill-rule="nonzero"
  />
  <path
    fill="#00abff"
    d="M 183.949219 186.699219 L 39.710938 186.699219 L 39.710938 330.886719 L 183.949219 330.886719 Z M 183.949219 186.699219 "
    fill-opacity="1"
    fill-rule="nonzero"
  />
  <path
    fill="#00141e"
    d="M 195.925781 342.859375 L 27.726562 342.859375 L 27.726562 174.71875 L 195.925781 174.71875 Z M 46.292969 324.300781 L 177.359375 324.300781 L 177.359375 193.277344 L 46.292969 193.277344 Z M 46.292969 324.300781 "
    fill-opacity="1"
    fill-rule="nonzero"
  />
</svg>
