<svg
  width="500"
  zoomAndPan="magnify"
  viewBox="0 0 375 374.999991"
  height="500"
>
  <path
    fill="#00abff"
    d="M 40.355469 336.957031 L 40.355469 324.703125 C 40.355469 296.210938 63.53125 273.03125 92.019531 273.03125 C 120.5 273.03125 143.675781 296.210938 143.675781 324.703125 L 143.675781 336.957031 Z M 40.355469 336.957031 "
    fill-opacity="1"
    fill-rule="nonzero"
  />
  <path
    fill="#00abff"
    d="M 230.578125 336.957031 L 230.578125 324.703125 C 230.578125 296.210938 253.75 273.03125 282.238281 273.03125 C 310.722656 273.03125 333.894531 296.210938 333.894531 324.703125 L 333.894531 336.957031 Z M 230.578125 336.957031 "
    fill-opacity="1"
    fill-rule="nonzero"
  />
  <path
    fill="#00abff"
    d="M 135.753906 165.320312 L 135.753906 153.066406 C 135.753906 124.574219 158.925781 101.394531 187.410156 101.394531 C 215.890625 101.394531 239.066406 124.574219 239.066406 153.066406 L 239.066406 165.320312 Z M 135.753906 165.320312 "
    fill-opacity="1"
    fill-rule="nonzero"
  />
  <path
    fill="#00141e"
    d="M 248.191406 153.082031 C 248.191406 129.386719 234.5625 108.820312 214.738281 98.800781 C 237.574219 74.847656 220.632812 34.835938 187.40625 34.835938 C 154.15625 34.835938 137.234375 74.875 160.09375 98.820312 C 140.289062 108.847656 126.679688 129.402344 126.679688 153.082031 L 126.679688 174.402344 L 248.191406 174.402344 Z M 187.40625 53.070312 C 198.199219 53.070312 206.980469 61.871094 206.980469 72.6875 C 206.980469 83.507812 198.199219 92.308594 187.40625 92.308594 C 176.613281 92.308594 167.828125 83.507812 167.828125 72.6875 C 167.828125 61.871094 176.613281 53.070312 187.40625 53.070312 Z M 229.960938 156.167969 L 144.90625 156.167969 L 144.90625 153.082031 C 144.90625 129.628906 163.984375 110.542969 187.4375 110.542969 C 210.886719 110.542969 229.960938 129.625 229.960938 153.082031 Z M 229.960938 156.167969 "
    fill-opacity="1"
    fill-rule="nonzero"
  />
  <path
    fill="#00141e"
    d="M 309.113281 270.230469 C 331.714844 246.167969 314.59375 206.472656 281.585938 206.472656 C 248.21875 206.472656 231.332031 246.785156 254.472656 270.664062 C 234.890625 280.765625 221.46875 301.203125 221.46875 324.722656 L 221.46875 346.039062 L 342.980469 346.039062 L 342.980469 324.722656 C 342.980469 300.859375 329.164062 280.171875 309.113281 270.230469 Z M 281.585938 224.707031 C 292.382812 224.707031 301.164062 233.507812 301.164062 244.328125 C 301.164062 255.144531 292.382812 263.945312 281.585938 263.945312 C 270.792969 263.945312 262.011719 255.144531 262.011719 244.328125 C 262.011719 233.507812 270.792969 224.707031 281.585938 224.707031 Z M 324.753906 327.804688 L 239.699219 327.804688 L 239.699219 324.722656 C 239.699219 301.261719 258.773438 282.179688 282.226562 282.179688 C 305.675781 282.179688 324.75 301.261719 324.75 324.722656 Z M 324.753906 327.804688 "
    fill-opacity="1"
    fill-rule="nonzero"
  />
  <path
    fill="#00141e"
    d="M 119.535156 270.230469 C 142.136719 246.171875 125.023438 206.472656 92.011719 206.472656 C 58.644531 206.472656 41.753906 246.785156 64.894531 270.664062 C 45.3125 280.765625 31.890625 301.203125 31.890625 324.722656 L 31.890625 346.039062 L 153.402344 346.039062 L 153.402344 324.722656 C 153.402344 300.859375 139.585938 280.171875 119.535156 270.230469 Z M 92.011719 224.707031 C 102.804688 224.707031 111.585938 233.507812 111.585938 244.328125 C 111.585938 255.144531 102.804688 263.945312 92.011719 263.945312 C 81.214844 263.945312 72.433594 255.144531 72.433594 244.328125 C 72.433594 233.507812 81.214844 224.707031 92.011719 224.707031 Z M 135.175781 327.804688 L 50.121094 327.804688 L 50.121094 324.722656 C 50.121094 301.261719 69.195312 282.179688 92.648438 282.179688 C 116.097656 282.179688 135.175781 301.261719 135.175781 324.722656 Z M 135.175781 327.804688 "
    fill-opacity="1"
    fill-rule="nonzero"
  />
  <path
    fill="#00141e"
    d="M 210.152344 252.058594 C 194.3125 267.90625 180.554688 267.910156 164.710938 252.058594 L 151.824219 264.953125 C 174.328125 287.464844 199.535156 288.472656 223.042969 264.953125 Z M 210.152344 252.058594 "
    fill-opacity="1"
    fill-rule="nonzero"
  />
  <path
    fill="#00141e"
    d="M 109.609375 135.816406 L 109.609375 117.582031 C 77.851562 117.582031 59.25 134.632812 59.25 167.957031 L 77.476562 167.957031 C 77.476562 145.550781 87.203125 135.816406 109.609375 135.816406 Z M 109.609375 135.816406 "
    fill-opacity="1"
    fill-rule="nonzero"
  />
  <path
    fill="#00141e"
    d="M 297.921875 167.941406 L 316.152344 167.941406 C 316.152344 136.105469 299.039062 117.5625 265.792969 117.5625 L 265.792969 135.796875 C 288.191406 135.796875 297.921875 145.527344 297.921875 167.941406 Z M 297.921875 167.941406 "
    fill-opacity="1"
    fill-rule="nonzero"
  />
  <path
    fill="#00abff"
    d="M 134.53125 324.707031 L 134.53125 327.816406 L 49.5 327.816406 L 49.5 324.707031 C 49.5 301.292969 68.609375 282.179688 92.015625 282.179688 C 115.515625 282.179688 134.53125 301.292969 134.53125 324.707031 Z M 134.53125 324.707031 "
    fill-opacity="1"
    fill-rule="nonzero"
  />
  <path
    fill="#00abff"
    d="M 324.75 324.707031 L 324.75 327.816406 L 239.71875 327.816406 L 239.71875 324.707031 C 239.71875 301.292969 258.828125 282.179688 282.234375 282.179688 C 305.734375 282.179688 324.75 301.292969 324.75 324.707031 Z M 324.75 324.707031 "
    fill-opacity="1"
    fill-rule="nonzero"
  />
  <path
    fill="#00abff"
    d="M 229.925781 153.070312 L 229.925781 156.179688 L 144.894531 156.179688 L 144.894531 153.070312 C 144.894531 129.65625 164.003906 110.542969 187.410156 110.542969 C 210.910156 110.542969 229.925781 129.65625 229.925781 153.070312 Z M 229.925781 153.070312 "
    fill-opacity="1"
    fill-rule="nonzero"
  />
</svg>
