<svg
  width="500"
  zoomAndPan="magnify"
  viewBox="0 0 375 374.999991"
  height="500"
>
  <defs>
    <clipPath id="1dca561b65">
      <path
        d="M 0 61.015625 L 375 61.015625 L 375 313.765625 L 0 313.765625 Z M 0 61.015625 "
        clip-rule="nonzero"
      />
    </clipPath>
  </defs>
  <g clip-path="url(#1dca561b65)">
    <path
      fill="#00141e"
      d="M 233.351562 61.015625 C 200.5625 61.015625 170.320312 70.007812 146.273438 85.351562 C 146.03125 85.507812 145.808594 85.683594 145.601562 85.882812 C 145.394531 86.085938 145.210938 86.304688 145.046875 86.539062 C 144.882812 86.777344 144.746094 87.027344 144.632812 87.289062 C 144.519531 87.554688 144.429688 87.828125 144.371094 88.105469 C 144.3125 88.386719 144.277344 88.671875 144.273438 88.960938 C 144.269531 89.246094 144.292969 89.53125 144.347656 89.816406 C 144.398438 90.097656 144.476562 90.371094 144.585938 90.640625 C 144.691406 90.90625 144.820312 91.160156 144.976562 91.402344 C 145.132812 91.644531 145.3125 91.867188 145.515625 92.074219 C 145.714844 92.277344 145.933594 92.460938 146.167969 92.625 C 146.40625 92.789062 146.65625 92.925781 146.921875 93.039062 C 147.1875 93.152344 147.457031 93.242188 147.738281 93.300781 C 148.019531 93.359375 148.304688 93.390625 148.59375 93.394531 C 148.878906 93.398438 149.164062 93.375 149.449219 93.324219 C 149.730469 93.269531 150.007812 93.191406 150.273438 93.085938 C 150.539062 92.980469 150.796875 92.847656 151.035156 92.691406 C 173.601562 78.292969 202.171875 69.714844 233.351562 69.714844 C 307.125 69.714844 366.007812 117.765625 366.007812 176.296875 C 366.007812 216.792969 339.417969 249.949219 297.570312 268.195312 C 297.074219 268.40625 296.632812 268.703125 296.246094 269.078125 C 295.859375 269.453125 295.550781 269.886719 295.324219 270.375 C 295.097656 270.867188 294.96875 271.378906 294.933594 271.917969 C 294.898438 272.457031 294.960938 272.984375 295.121094 273.5 L 303.695312 301.367188 L 260.425781 283.421875 C 259.910156 283.179688 259.367188 283.042969 258.796875 283.015625 L 233.351562 283.015625 C 216.128906 283.015625 199.714844 280.445312 184.644531 275.671875 C 210.253906 258.746094 226.683594 232.648438 226.683594 203.214844 C 226.683594 151.375 175.550781 110.363281 113.484375 110.363281 C 51.417969 110.363281 0.28125 151.375 0.28125 203.214844 C 0.28125 237.65625 22.636719 265.804688 55.929688 281.65625 L 48.039062 307.621094 C 47.917969 308.015625 47.851562 308.421875 47.84375 308.835938 C 47.835938 309.25 47.886719 309.660156 47.996094 310.058594 C 48.105469 310.457031 48.269531 310.835938 48.484375 311.1875 C 48.703125 311.542969 48.964844 311.859375 49.273438 312.136719 C 49.578125 312.414062 49.917969 312.644531 50.292969 312.828125 C 50.664062 313.007812 51.058594 313.132812 51.464844 313.203125 C 51.875 313.273438 52.285156 313.285156 52.699219 313.234375 C 53.109375 313.1875 53.507812 313.082031 53.890625 312.921875 L 94.300781 296.066406 L 113.484375 296.066406 C 135.890625 296.066406 156.90625 290.789062 174.574219 281.519531 C 174.796875 281.582031 175.023438 281.628906 175.253906 281.65625 C 193 288.183594 212.652344 291.714844 233.351562 291.714844 L 257.707031 291.714844 L 308.863281 312.921875 C 309.246094 313.082031 309.644531 313.1875 310.054688 313.234375 C 310.46875 313.285156 310.878906 313.273438 311.289062 313.203125 C 311.699219 313.132812 312.089844 313.007812 312.460938 312.828125 C 312.835938 312.644531 313.175781 312.414062 313.484375 312.136719 C 313.789062 311.859375 314.050781 311.542969 314.269531 311.1875 C 314.488281 310.835938 314.648438 310.457031 314.757812 310.058594 C 314.867188 309.660156 314.917969 309.25 314.910156 308.835938 C 314.902344 308.421875 314.839844 308.015625 314.714844 307.621094 L 304.511719 274.179688 C 346.613281 254.523438 374.71875 219.359375 374.71875 176.296875 C 374.71875 111.980469 310.933594 61.015625 233.351562 61.015625 Z M 113.484375 119.0625 C 171.730469 119.0625 217.976562 157.144531 217.976562 203.214844 C 217.976562 249.285156 171.730469 287.363281 113.484375 287.363281 L 93.347656 287.363281 C 92.777344 287.394531 92.230469 287.53125 91.714844 287.773438 L 59.058594 301.367188 L 65.320312 280.976562 C 65.480469 280.460938 65.542969 279.933594 65.507812 279.394531 C 65.472656 278.855469 65.34375 278.34375 65.117188 277.851562 C 64.890625 277.363281 64.582031 276.929688 64.195312 276.554688 C 63.808594 276.179688 63.367188 275.886719 62.871094 275.671875 C 29.847656 261.234375 8.992188 235.105469 8.992188 203.214844 C 8.992188 157.144531 55.238281 119.0625 113.484375 119.0625 Z M 67.632812 193.289062 C 62.199219 193.289062 57.699219 197.660156 57.699219 203.078125 C 57.699219 208.496094 62.199219 212.867188 67.632812 212.867188 C 73.0625 212.867188 77.429688 208.496094 77.429688 203.078125 C 77.429688 197.660156 73.0625 193.289062 67.632812 193.289062 Z M 113.484375 193.289062 C 108.054688 193.289062 103.6875 197.660156 103.6875 203.078125 C 103.6875 208.496094 108.054688 212.867188 113.484375 212.867188 C 118.914062 212.867188 123.28125 208.496094 123.28125 203.078125 C 123.28125 197.660156 118.914062 193.289062 113.484375 193.289062 Z M 159.335938 193.289062 C 153.90625 193.289062 149.539062 197.660156 149.539062 203.078125 C 149.539062 208.496094 153.90625 212.867188 159.335938 212.867188 C 164.765625 212.867188 169.132812 208.496094 169.132812 203.078125 C 169.132812 197.660156 164.765625 193.289062 159.335938 193.289062 Z M 159.335938 193.289062 "
      fill-opacity="1"
      fill-rule="nonzero"
    />
  </g>
</svg>
