<svg version="1.2" viewBox="0 0 41.25 41.250001" height="41.250001pt" width="41.25pt" xmlns:xlink="http://www.w3.org/1999/xlink" xmlns="http://www.w3.org/2000/svg">
<g id="surface1">
<path d="M 20.234375 19.382812 L 26.355469 25.527344 C 27.152344 26.292969 28.417969 26.273438 29.195312 25.492188 C 29.972656 24.707031 29.976562 23.445312 29.207031 22.652344 L 23.09375 16.507812 C 22.398438 17.210938 23.261719 16.34375 20.234375 19.382812 Z M 20.234375 19.382812" style="stroke:none;fill-rule:nonzero;fill:rgb(11.759949%,48.629761%,94.119263%);fill-opacity:1;"></path>
<path d="M 30.019531 9.546875 L 27.289062 12.292969 C 27.164062 12.417969 26.996094 12.488281 26.820312 12.488281 L 23.980469 12.488281 C 23.613281 12.488281 23.320312 12.191406 23.320312 11.828125 L 23.320312 8.96875 C 23.320312 8.796875 23.390625 8.628906 23.511719 8.507812 L 26.25 5.75 C 24.542969 5.445312 22.804688 6.097656 21.722656 7.453125 C 20.644531 8.808594 20.390625 10.648438 21.070312 12.246094 C 21.171875 12.492188 21.117188 12.777344 20.929688 12.964844 C 18.457031 15.46875 17.914062 16 10.707031 23.246094 C 10.171875 23.773438 10.167969 24.628906 10.695312 25.164062 C 11.222656 25.695312 12.078125 25.699219 12.609375 25.171875 C 29.238281 8.453125 19.390625 18.359375 22.839844 14.890625 C 23.027344 14.703125 23.316406 14.644531 23.5625 14.75 C 25.160156 15.421875 26.996094 15.164062 28.347656 14.078125 C 29.695312 12.988281 30.339844 11.25 30.019531 9.546875 Z M 30.019531 9.546875" style="stroke:none;fill-rule:nonzero;fill:rgb(11.759949%,48.629761%,94.119263%);fill-opacity:1;"></path>
<g clip-rule="nonzero" clip-path="url(#clip1)">
<path d="M 35.371094 1.054688 L 5.027344 1.054688 C 2.839844 1.054688 1.070312 2.824219 1.070312 5.011719 L 1.070312 27.441406 C 1.070312 29.628906 2.839844 31.398438 5.027344 31.398438 L 12.285156 31.398438 C 12.285156 31.398438 12.757812 35.65625 9.699219 38.164062 C 9.46875 38.339844 9.382812 38.644531 9.484375 38.914062 C 9.585938 39.183594 9.847656 39.359375 10.136719 39.34375 C 13.382812 39.117188 18.835938 37.773438 20.199219 31.398438 L 35.371094 31.398438 C 37.558594 31.398438 39.332031 29.628906 39.332031 27.441406 L 39.332031 5.011719 C 39.332031 2.824219 37.558594 1.054688 35.371094 1.054688 Z M 5.027344 4.351562 L 4.367188 4.351562 C 4.003906 4.351562 3.707031 4.054688 3.707031 3.691406 C 3.707031 3.328125 4.003906 3.03125 4.367188 3.03125 L 5.027344 3.03125 C 5.390625 3.03125 5.6875 3.328125 5.6875 3.691406 C 5.6875 4.054688 5.390625 4.351562 5.027344 4.351562 Z M 7.007812 3.691406 C 7.007812 3.328125 7.300781 3.03125 7.664062 3.03125 L 10.964844 3.03125 C 11.328125 3.03125 11.625 3.328125 11.625 3.691406 C 11.625 4.054688 11.328125 4.351562 10.964844 4.351562 L 7.664062 4.351562 C 7.300781 4.351562 7.007812 4.054688 7.007812 3.691406 Z M 30.09375 29.421875 L 29.4375 29.421875 C 29.070312 29.421875 28.777344 29.125 28.777344 28.761719 C 28.777344 28.394531 29.070312 28.101562 29.4375 28.101562 L 30.09375 28.101562 C 30.460938 28.101562 30.753906 28.394531 30.753906 28.761719 C 30.753906 29.125 30.460938 29.421875 30.09375 29.421875 Z M 30.140625 21.722656 C 31.09375 22.679688 31.375 24.117188 30.859375 25.363281 C 30.347656 26.609375 29.136719 27.429688 27.785156 27.441406 C 26.898438 27.445312 26.046875 27.089844 25.421875 26.457031 L 19.304688 20.316406 L 13.546875 26.101562 C 13.046875 26.609375 12.367188 26.894531 11.65625 26.894531 C 10.578125 26.882812 9.609375 26.226562 9.195312 25.226562 C 8.785156 24.230469 9.011719 23.082031 9.769531 22.3125 L 16.480469 15.570312 L 13.566406 12.640625 C 13.433594 12.78125 13.246094 12.851562 13.054688 12.839844 C 12.863281 12.832031 12.6875 12.738281 12.570312 12.585938 L 9.253906 8.296875 C 9.050781 8.035156 9.074219 7.664062 9.308594 7.429688 L 11.203125 5.523438 C 11.441406 5.289062 11.816406 5.265625 12.078125 5.472656 L 16.34375 8.804688 C 16.492188 8.925781 16.585938 9.101562 16.59375 9.292969 C 16.605469 9.484375 16.53125 9.671875 16.394531 9.800781 L 19.304688 12.730469 L 19.695312 12.332031 C 18.921875 10.085938 19.546875 7.59375 21.285156 5.96875 C 23.023438 4.347656 25.550781 3.898438 27.742188 4.824219 C 27.945312 4.910156 28.09375 5.089844 28.132812 5.304688 C 28.175781 5.519531 28.109375 5.742188 27.957031 5.894531 L 24.636719 9.238281 L 24.636719 11.164062 L 26.542969 11.164062 L 29.859375 7.828125 C 30.015625 7.671875 30.238281 7.605469 30.453125 7.644531 C 30.667969 7.6875 30.851562 7.835938 30.9375 8.039062 C 31.765625 9.988281 31.507812 12.230469 30.261719 13.945312 C 29.015625 15.65625 26.964844 16.589844 24.851562 16.40625 Z M 36.03125 29.421875 L 32.734375 29.421875 C 32.371094 29.421875 32.074219 29.125 32.074219 28.761719 C 32.074219 28.394531 32.371094 28.101562 32.734375 28.101562 L 36.03125 28.101562 C 36.398438 28.101562 36.691406 28.394531 36.691406 28.761719 C 36.691406 29.125 36.398438 29.421875 36.03125 29.421875 Z M 36.03125 29.421875" style="stroke:none;fill-rule:nonzero;fill:rgb(11.759949%,48.629761%,94.119263%);fill-opacity:1;"></path>
</g>
<path d="M 18.371094 13.667969 C 14.785156 10.054688 14.773438 10.171875 14.816406 9.734375 C 14.816406 9.648438 14.84375 9.5625 14.894531 9.488281 C 14.90625 9.453125 14.925781 9.421875 14.945312 9.386719 L 11.726562 6.871094 L 10.652344 7.949219 L 13.160156 11.1875 C 13.167969 11.179688 13.335938 11.09375 13.347656 11.089844 C 13.425781 11.070312 13.503906 11.054688 13.585938 11.050781 C 13.949219 11.058594 13.78125 10.984375 17.410156 14.632812 Z M 18.371094 13.667969" style="stroke:none;fill-rule:nonzero;fill:rgb(11.759949%,48.629761%,94.119263%);fill-opacity:1;"></path>
</g>
</svg>
