<svg
  width="500"
  zoomAndPan="magnify"
  viewBox="0 0 375 374.999991"
  height="500"
>
  <path
    fill="#00abff"
    d="M 62.910156 281.9375 L 132.5 212.332031 L 223.875 212.332031 C 234.3125 212.332031 242.804688 220.824219 242.804688 231.257812 C 242.804688 241.644531 234.3125 250.105469 223.875 250.105469 L 177.429688 250.105469 L 177.429688 251.382812 L 223.875 251.382812 C 229.277344 251.382812 234.347656 249.28125 238.160156 245.460938 L 283.96875 199.558594 C 287.515625 195.996094 292.277344 194.039062 297.386719 194.039062 C 302.433594 194.039062 307.167969 195.996094 310.714844 199.558594 C 314.324219 203.15625 316.296875 207.964844 316.269531 213.0625 C 316.238281 218.128906 314.234375 222.851562 310.628906 226.371094 L 241.742188 295.292969 L 147.472656 311.839844 L 120.203125 339.121094 Z M 62.910156 281.9375 "
    fill-opacity="1"
    fill-rule="nonzero"
  />
  <path
    fill="#00abff"
    d="M 304.234375 219.8125 L 237.304688 286.761719 L 143.039062 303.316406 L 120.183594 326.183594 L 75.839844 281.914062 L 136.277344 221.460938 L 223.867188 221.460938 C 229.261719 221.460938 233.648438 225.851562 233.648438 231.246094 C 233.648438 236.550781 229.261719 240.941406 223.867188 240.941406 L 168.277344 240.941406 L 168.277344 260.515625 L 223.867188 260.515625 C 232.003906 260.515625 239.320312 257.21875 244.621094 251.914062 L 290.429688 206.003906 C 292.257812 204.171875 294.726562 203.167969 297.375 203.167969 C 299.9375 203.167969 302.40625 204.171875 304.234375 206.003906 C 308.078125 209.84375 308.078125 216.058594 304.234375 219.8125 Z M 304.234375 219.8125 "
    fill-opacity="1"
    fill-rule="nonzero"
  />
  <path
    fill="#00141e"
    d="M 318.035156 192.230469 C 312.511719 186.703125 305.164062 183.660156 297.347656 183.660156 C 289.53125 183.660156 282.1875 186.703125 276.660156 192.230469 L 250.296875 218.605469 C 245.582031 208.753906 235.519531 201.9375 223.890625 201.9375 L 128.230469 201.9375 L 48.285156 281.910156 L 120.136719 353.789062 L 152.425781 321.492188 L 246.753906 304.929688 L 318.035156 233.625 C 329.445312 222.210938 329.445312 203.644531 318.035156 192.230469 Z M 304.253906 219.835938 L 237.320312 286.785156 L 142.992188 303.347656 L 120.136719 326.210938 L 75.855469 281.910156 L 136.304688 221.4375 L 223.890625 221.4375 C 229.273438 221.4375 233.65625 225.820312 233.65625 231.207031 C 233.65625 236.589844 229.273438 240.972656 223.890625 240.972656 L 168.246094 240.972656 L 168.246094 260.472656 L 223.890625 260.472656 C 231.964844 260.472656 239.28125 257.1875 244.582031 251.882812 L 244.589844 251.890625 L 290.445312 206.019531 C 292.289062 204.175781 294.738281 203.160156 297.347656 203.160156 C 299.957031 203.160156 302.40625 204.175781 304.253906 206.019531 C 308.058594 209.828125 308.058594 216.027344 304.253906 219.835938 Z M 304.253906 219.835938 "
    fill-opacity="1"
    fill-rule="nonzero"
  />
  <path
    fill="#00141e"
    d="M 251.421875 148.367188 C 251.421875 124.882812 238.296875 104.410156 219 93.898438 C 226.964844 86.175781 231.925781 75.371094 231.925781 63.425781 C 231.925781 40.007812 212.878906 20.953125 189.472656 20.953125 C 166.0625 20.953125 147.015625 40.007812 147.015625 63.425781 C 147.015625 75.371094 151.976562 86.175781 159.941406 93.898438 C 140.644531 104.410156 127.519531 124.882812 127.519531 148.367188 L 127.519531 182.429688 L 251.421875 182.429688 Z M 166.507812 63.425781 C 166.507812 50.761719 176.808594 40.457031 189.472656 40.457031 C 202.128906 40.457031 212.433594 50.761719 212.433594 63.425781 C 212.433594 76.089844 202.128906 86.394531 189.472656 86.394531 C 176.808594 86.394531 166.507812 76.089844 166.507812 63.425781 Z M 231.925781 162.925781 L 147.015625 162.925781 L 147.015625 148.367188 C 147.015625 124.949219 166.0625 105.898438 189.472656 105.898438 C 212.878906 105.898438 231.925781 124.949219 231.925781 148.367188 Z M 231.925781 162.925781 "
    fill-opacity="1"
    fill-rule="nonzero"
  />
</svg>
