<svg
  width="500"
  zoomAndPan="magnify"
  viewBox="0 0 375 374.999991"
  height="500"
  preserveAspectRatio="xMidYMid meet"
  version="1.0"
>
  <path
    fill="#00abff"
    d="M 352.960938 77.796875 L 200.503906 77.796875 L 200.503906 178.441406 L 352.960938 178.441406 Z M 352.960938 77.796875 "
    fill-opacity="1"
    fill-rule="nonzero"
  />
  <path
    fill="#00141e"
    d="M 362.253906 187.652344 L 191.199219 187.652344 L 191.199219 31.871094 L 362.253906 31.871094 Z M 209.796875 169.050781 L 343.65625 169.050781 L 343.65625 50.472656 L 209.796875 50.472656 Z M 209.796875 169.050781 "
    fill-opacity="1"
    fill-rule="nonzero"
  />
  <path
    fill="#00141e"
    d="M 352.960938 68.492188 L 200.503906 68.492188 L 200.503906 87.09375 L 352.960938 87.09375 Z M 352.960938 68.492188 "
    fill-opacity="1"
    fill-rule="nonzero"
  />
  <path
    fill="#00141e"
    d="M 273.972656 93.113281 L 259.378906 159.007812 L 277.535156 163.03125 L 292.128906 97.136719 Z M 273.972656 93.113281 "
    fill-opacity="1"
    fill-rule="nonzero"
  />
  <path
    fill="#00141e"
    d="M 303.691406 155.484375 L 290.542969 142.328125 L 304.777344 128.085938 L 290.566406 113.972656 L 303.667969 100.769531 L 331.125 128.039062 Z M 303.691406 155.484375 "
    fill-opacity="1"
    fill-rule="nonzero"
  />
  <path
    fill="#00141e"
    d="M 248.050781 155.519531 L 220.59375 128.25 L 248.027344 100.804688 L 261.175781 113.960938 L 246.941406 128.203125 L 261.152344 142.316406 Z M 248.050781 155.519531 "
    fill-opacity="1"
    fill-rule="nonzero"
  />
  <path
    fill="#00141e"
    d="M 183.660156 342.890625 L 12.605469 342.890625 L 12.605469 187.105469 L 183.660156 187.105469 Z M 31.203125 324.289062 L 165.0625 324.289062 L 165.0625 205.710938 L 31.203125 205.710938 Z M 31.203125 324.289062 "
    fill-opacity="1"
    fill-rule="nonzero"
  />
  <path
    fill="#00141e"
    d="M 174.367188 223.726562 L 21.910156 223.726562 L 21.910156 242.332031 L 174.367188 242.332031 Z M 174.367188 223.726562 "
    fill-opacity="1"
    fill-rule="nonzero"
  />
  <path
    fill="#00141e"
    d="M 95.378906 248.351562 L 80.785156 314.246094 L 98.941406 318.269531 L 113.535156 252.375 Z M 95.378906 248.351562 "
    fill-opacity="1"
    fill-rule="nonzero"
  />
  <path
    fill="#00141e"
    d="M 125.097656 310.722656 L 111.945312 297.566406 L 126.183594 283.324219 L 111.972656 269.210938 L 125.074219 256.007812 L 152.53125 283.277344 Z M 125.097656 310.722656 "
    fill-opacity="1"
    fill-rule="nonzero"
  />
  <path
    fill="#00141e"
    d="M 69.441406 310.757812 L 41.980469 283.488281 L 69.417969 256.042969 L 82.566406 269.199219 L 68.328125 283.441406 L 82.542969 297.554688 Z M 69.441406 310.757812 "
    fill-opacity="1"
    fill-rule="nonzero"
  />
  <path
    fill="#00141e"
    d="M 286.21875 308.511719 L 216.84375 308.511719 L 216.84375 289.910156 L 267.625 289.910156 L 267.625 237.535156 L 286.21875 237.535156 Z M 286.21875 308.511719 "
    fill-opacity="1"
    fill-rule="nonzero"
  />
  <path
    fill="#00141e"
    d="M 250.511719 266.257812 L 237.363281 253.105469 L 277.050781 213.402344 L 316.484375 252.851562 L 303.335938 266.007812 L 277.050781 239.710938 Z M 250.511719 266.257812 "
    fill-opacity="1"
    fill-rule="nonzero"
  />
  <path
    fill="#00141e"
    d="M 107.863281 132.714844 L 89.269531 132.714844 L 89.269531 61.738281 L 158.644531 61.738281 L 158.644531 80.339844 L 107.863281 80.339844 Z M 107.863281 132.714844 "
    fill-opacity="1"
    fill-rule="nonzero"
  />
  <path
    fill="#00141e"
    d="M 98.4375 156.839844 L 59 117.390625 L 72.148438 104.238281 L 98.4375 130.535156 L 124.972656 103.984375 L 138.125 117.140625 Z M 98.4375 156.839844 "
    fill-opacity="1"
    fill-rule="nonzero"
  />
</svg>
